<?xml version="1.0" encoding="UTF-8"?>
<svg width="163px" height="24px" viewBox="0 0 163 24" version="1.1" xmlns="http://www.w3.org/2000/svg" xmlns:xlink="http://www.w3.org/1999/xlink">
    <!-- Generator: Sketch 48.2 (47327) - http://www.bohemiancoding.com/sketch -->
    <title>Page 1</title>
    <desc>Created with Sketch.</desc>
    <defs>
        <polygon id="path-1" points="0.157157581 0.904 8.1878 0.904 8.1878 11.6721 0.157157581 11.6721 0.157157581 0.904"></polygon>
        <polygon id="path-3" points="0 25.0965 162.212 25.0965 162.212 1.0005 0 1.0005"></polygon>
    </defs>
    <g id="Desktop-(-&gt;1170px)" stroke="none" stroke-width="1" fill="none" fill-rule="evenodd" transform="translate(-150.000000, -2276.000000)">
        <g id="8-ν‘Έν„°" transform="translate(0.000000, 2235.000000)">
            <g id="Page-1" transform="translate(150.000000, 40.000000)">
                <path d="M159.9012,10.4515 C159.8742,10.4645 159.8432,10.5025 159.8422,10.5305 C159.8402,10.5935 159.8622,10.6575 159.8632,10.7215 C159.8652,10.8065 159.8922,10.8455 159.9882,10.8475 C160.2692,10.8525 160.5512,10.8625 160.8322,10.8845 C161.0272,10.9005 161.1632,10.7825 161.3182,10.7045 C161.3332,10.6975 161.3322,10.6595 161.3332,10.6535 C161.2172,10.6175 161.1132,10.5855 161.0262,10.5585 C161.0512,10.4055 161.0702,10.2945 161.0892,10.1775 C160.9212,10.0575 159.9822,10.1495 159.8632,10.3215 C159.9302,10.3375 159.9962,10.3535 160.0612,10.3705 C160.0602,10.3815 160.0592,10.3935 160.0582,10.4055 C160.0052,10.4195 159.9492,10.4285 159.9012,10.4515 Z M144.3582,10.3495 C144.3352,10.4065 144.3102,10.4625 144.2872,10.5195 C144.3112,10.5325 144.3372,10.5455 144.3622,10.5585 C144.3872,10.5075 144.4182,10.4585 144.4342,10.4045 C144.4372,10.3955 144.3852,10.3685 144.3582,10.3495 Z M144.5672,9.5465 C144.4862,9.5955 144.4212,9.6685 144.3492,9.7325 C144.3952,9.7745 144.4692,9.8585 144.4832,9.8495 C144.5532,9.8035 144.6092,9.7345 144.6702,9.6725 C144.6812,9.6475 144.6922,9.6225 144.7042,9.5975 C144.6572,9.5785 144.5922,9.5305 144.5672,9.5465 Z M162.1062,9.0895 C162.2342,9.1745 162.2532,9.2815 162.1232,9.3705 C161.9802,9.4685 161.8222,9.5165 161.6432,9.4965 C161.5542,9.4875 161.4452,9.4675 161.4742,9.6335 C161.4882,9.7155 161.2752,9.8515 161.1482,9.8555 C160.9132,9.8625 160.6762,9.8495 160.4432,9.8735 C160.1962,9.8995 159.9532,9.9565 159.7082,10.0035 C159.6812,10.0085 159.6592,10.0355 159.6182,10.0655 C159.9262,10.1395 160.2082,10.0985 160.4892,10.0555 C160.7712,10.0125 161.0512,9.9605 161.3342,9.9245 C161.4102,9.9145 161.4922,9.9495 161.5922,9.9685 C161.5232,10.0835 161.4582,10.1565 161.5772,10.2635 C161.6722,10.3495 161.6142,10.5045 161.5112,10.5975 C161.4802,10.6255 161.4822,10.6915 161.4692,10.7405 C161.4802,10.7465 161.4922,10.7525 161.5032,10.7585 C161.4632,10.7735 161.4252,10.7885 161.3852,10.8035 C161.3132,10.8285 161.2852,10.8675 161.3372,10.9395 C161.3532,10.9635 161.3692,11.0005 161.3612,11.0235 C161.3362,11.1015 161.0772,11.1655 161.0022,11.1265 C160.9582,11.1025 160.9032,11.0845 160.8552,11.0875 C160.3672,11.1185 159.8782,11.1455 159.3902,11.1915 C159.1642,11.2135 158.9402,11.3055 158.7142,11.3065 C158.5232,11.3065 158.3742,11.3895 158.2072,11.4435 C158.1092,11.4745 158.0082,11.5095 157.9082,11.5185 C157.7562,11.5325 157.6282,11.5805 157.5072,11.6735 C157.4632,11.7085 157.3872,11.7145 157.3272,11.7115 C157.1732,11.7065 157.0212,11.6855 156.8692,11.6795 C156.8382,11.6775 156.8012,11.7085 156.7782,11.7335 C156.6752,11.8415 156.5752,11.8585 156.4752,11.7615 C156.3742,11.6625 156.3052,11.6735 156.2262,11.7865 C156.1472,11.9005 155.9112,11.9455 155.7442,11.8815 C155.6442,11.8435 155.5572,11.8155 155.4812,11.9225 C155.4652,11.9445 155.4222,11.9625 155.3942,11.9585 C155.2492,11.9365 155.1552,12.0185 155.0592,12.1065 C155.0272,12.1365 154.9842,12.1625 154.9422,12.1755 C154.7752,12.2245 154.6122,12.2625 154.4272,12.2505 C154.2822,12.2405 154.1292,12.3315 153.9792,12.3795 C153.8832,12.4095 153.7882,12.4425 153.6932,12.4745 C153.5752,12.5145 153.4592,12.5595 153.3392,12.5915 C153.2282,12.6205 153.1142,12.6345 153.0012,12.6585 C152.9302,12.6735 152.8312,12.6715 152.7972,12.7165 C152.6942,12.8525 152.5682,12.8325 152.4382,12.8015 C152.3642,12.7845 152.3342,12.8055 152.2912,12.8645 C152.2272,12.9545 152.1432,13.0305 152.0662,13.1105 C151.9582,13.2235 151.8132,13.3065 151.7862,13.4835 C151.7822,13.5115 151.7532,13.5385 151.7282,13.5595 C151.5852,13.6805 151.5252,13.8435 151.4882,14.0195 C151.4812,14.0525 151.4672,14.1015 151.4442,14.1105 C151.3162,14.1605 151.3362,14.2635 151.3262,14.3685 C151.3072,14.5675 151.2662,14.7635 151.2382,14.9605 C151.2302,15.0175 151.2352,15.0765 151.2342,15.1345 C151.2312,15.2275 151.2272,15.3215 151.2252,15.4145 C151.2222,15.5165 151.2192,15.6195 151.2182,15.7225 C151.2182,15.9035 151.2512,16.0935 151.2062,16.2635 C151.1812,16.3545 151.1332,16.4235 151.1902,16.5135 C151.1952,16.5215 151.2022,16.5335 151.2002,16.5395 C151.1122,16.7715 151.2322,16.9815 151.2682,17.2005 C151.2752,17.2375 151.2742,17.2765 151.2722,17.3135 C151.2632,17.5475 151.2292,17.7835 151.2512,18.0135 C151.2712,18.2335 151.3512,18.4475 151.4072,18.6735 C151.1992,18.7645 151.2152,18.7645 151.2032,18.9955 C151.1942,19.1555 151.1412,19.3145 151.0892,19.4675 C151.0572,19.5615 150.9832,19.6315 150.8662,19.6335 C150.7782,19.6355 150.7312,19.6775 150.7302,19.7755 C150.7282,19.8825 150.6722,19.9315 150.5622,19.8805 C150.4672,19.8365 150.3912,19.8145 150.3052,19.9245 C150.2512,19.9945 150.1372,20.0525 150.0492,20.0545 C149.9632,20.0555 149.8742,19.9785 149.7862,19.9375 C149.7402,19.9155 149.6952,19.8885 149.6462,19.8755 C149.4492,19.8245 149.4072,19.7695 149.3632,19.5765 C149.3192,19.3875 149.2532,19.2025 149.1992,19.0145 C149.1812,18.9535 149.1762,18.8875 149.1542,18.8285 C149.1312,18.7705 149.0932,18.7195 149.0472,18.6375 C149.0872,18.5415 149.0082,18.4985 148.8952,18.4565 C148.8512,18.4395 148.8202,18.3665 148.7982,18.3125 C148.7682,18.2375 148.7212,18.1475 148.7412,18.0815 C148.7552,18.0325 148.8722,18.0205 148.9282,17.9735 C149.0402,17.8815 148.9912,17.7555 148.8112,17.6815 C148.8342,17.6095 148.8572,17.5365 148.8762,17.4785 C148.7682,17.4155 148.6742,17.3605 148.5812,17.3055 C148.5872,17.2915 148.5912,17.2785 148.5962,17.2655 C148.6452,17.2625 148.6932,17.2585 148.7412,17.2555 C148.7532,17.0545 148.6742,16.9625 148.5142,16.9845 C148.4602,16.8275 148.3842,16.6765 148.4772,16.5015 C148.5002,16.4585 148.4502,16.3785 148.4342,16.3145 C148.4172,16.2405 148.3992,16.1735 148.4932,16.1245 C148.5452,16.0975 148.5782,16.0345 148.6192,15.9885 C148.5132,15.8705 148.4092,15.7755 148.3332,15.6615 C148.2862,15.5935 148.2492,15.4885 148.2632,15.4115 C148.3152,15.1585 148.2202,14.9215 148.2152,14.6775 C148.2132,14.4775 148.2442,14.2745 148.3762,14.1025 C148.3942,14.0785 148.3652,13.9785 148.3352,13.9645 C148.2332,13.9195 148.2392,13.8535 148.2602,13.7675 C148.2742,13.7145 148.2702,13.6575 148.2722,13.6015 C148.2752,13.5055 148.2762,13.4095 148.2802,13.3135 C148.2822,13.2665 148.2832,13.2205 148.2922,13.1745 C148.3002,13.1295 148.3052,13.0685 148.3352,13.0455 C148.4192,12.9825 148.4232,12.9145 148.3972,12.8235 C148.3342,12.6085 148.3142,12.3955 148.3582,12.1695 C148.3922,11.9965 148.3772,11.8135 148.3712,11.6355 C148.3672,11.5275 148.2942,11.4895 148.2062,11.5535 C147.6312,11.9725 146.9582,12.1995 146.3402,12.5355 C145.9702,12.7375 145.6022,12.9435 145.2382,13.1535 C144.9912,13.2965 144.7472,13.4445 144.5102,13.6025 C144.2432,13.7835 143.9872,13.9805 143.7222,14.1655 C143.5992,14.2515 143.4652,14.3205 143.3412,14.4055 C143.2542,14.4655 143.1792,14.5465 143.0902,14.6055 C142.9152,14.7225 142.7332,14.8315 142.5542,14.9445 C142.5192,14.9665 142.4742,14.9855 142.4562,15.0185 C142.3262,15.2505 142.1122,15.3885 141.8962,15.5245 C141.8842,15.5325 141.8722,15.5385 141.8622,15.5495 C141.6962,15.7325 141.5372,15.9215 141.3632,16.0965 C141.2812,16.1795 141.1742,16.2415 141.0712,16.2995 C140.9672,16.3585 140.8442,16.3855 140.8182,16.5325 C140.8122,16.5655 140.7522,16.5915 140.7132,16.6145 C140.6722,16.6385 140.6182,16.6435 140.5872,16.6745 C140.3732,16.8885 140.0862,16.9785 139.8322,17.1235 C139.7912,17.1465 139.7322,17.1675 139.6922,17.1555 C139.4812,17.0955 139.2742,17.0235 139.0662,16.9565 C138.9772,16.9285 138.8832,16.8705 138.7972,16.8805 C138.5932,16.9015 138.4132,16.8205 138.2222,16.7855 C138.1142,16.7655 138.0082,16.7215 137.9052,16.6815 C137.6352,16.5775 137.6142,16.2345 137.8492,16.0265 C137.9532,15.9355 138.1002,15.8745 138.1242,15.7105 C138.1252,15.6995 138.1402,15.6835 138.1522,15.6805 C138.3792,15.6365 138.4622,15.4195 138.6182,15.2905 C138.7862,15.1525 138.9182,14.9475 139.1062,14.8645 C139.3232,14.7685 139.4422,14.5855 139.5972,14.4445 C139.7872,14.2735 140.0152,14.1785 140.2132,14.0305 C140.3812,13.9025 140.5862,13.8225 140.7742,13.7215 C140.8022,13.7055 140.8452,13.6965 140.8582,13.6725 C140.9542,13.4815 141.1742,13.4685 141.3102,13.3465 C141.3992,13.2665 141.4292,13.1225 141.4952,12.9895 C141.4052,12.9845 141.3552,12.9825 141.2852,12.9785 C141.3892,12.8095 141.4852,12.6525 141.5832,12.4935 C141.4182,12.4215 141.4222,12.4135 141.5012,12.2615 C141.5852,12.0965 141.6482,11.9215 141.7252,11.7525 C141.7522,11.6945 141.7972,11.6435 141.8242,11.5845 C141.9262,11.3565 142.0252,11.1255 142.1252,10.8965 C142.1722,10.7905 142.2232,10.6865 142.2622,10.5775 C142.3472,10.3445 142.4252,10.1095 142.5042,9.8745 C142.5162,9.8365 142.5342,9.7855 142.5192,9.7545 C142.4492,9.5975 142.5472,9.4875 142.6112,9.3655 C142.6752,9.2425 142.7482,9.1195 142.7842,8.9875 C142.8062,8.9035 142.7692,8.8035 142.7632,8.7095 C142.7612,8.6825 142.7702,8.6545 142.7782,8.6275 C142.8212,8.4825 142.8672,8.3375 142.9102,8.1925 C142.9842,7.9435 143.0632,7.6955 143.1282,7.4425 C143.1892,7.1985 143.2372,6.9495 143.2862,6.7015 C143.3142,6.5585 143.4042,6.4785 143.5152,6.3895 C143.6202,6.3065 143.6752,6.1625 143.7562,6.0395 C143.8832,6.1585 143.8842,5.9795 143.9352,5.9315 C144.1912,5.9705 144.2922,6.1755 144.4072,6.3495 C144.6292,6.6855 144.8752,7.0105 145.0052,7.3985 C145.0162,7.4325 145.0212,7.4845 145.0042,7.5115 C144.8992,7.6735 144.9282,7.8505 144.9262,8.0265 C144.9252,8.0905 144.8932,8.1695 144.8482,8.2145 C144.7722,8.2895 144.7662,8.2785 144.8402,8.3635 C144.8562,8.3815 144.8442,8.4555 144.8362,8.4575 C144.7302,8.4795 144.6822,8.5465 144.6642,8.6455 C144.6622,8.6555 144.6262,8.6565 144.6162,8.6695 C144.5912,8.6995 144.5582,8.7335 144.5582,8.7655 C144.5572,8.7875 144.6082,8.8295 144.6342,8.8285 C144.7692,8.8235 144.7912,8.8995 144.7832,9.0085 C144.7762,9.0975 144.7762,9.1865 144.7692,9.2755 C144.7422,9.6425 144.7282,10.0135 144.6322,10.3715 C144.6052,10.4725 144.5842,10.5975 144.4192,10.6085 C144.2192,10.6205 144.1702,10.8135 144.1042,10.9545 C144.0642,11.0395 144.0152,11.0865 143.9452,11.1315 C143.8642,11.1845 143.7992,11.2275 143.9482,11.2955 C144.1112,11.3705 144.1172,11.3815 144.2092,11.2355 C144.2212,11.2155 144.2472,11.2005 144.2702,11.1905 C144.4352,11.1195 144.6042,11.0545 144.7682,10.9795 C144.9482,10.8975 145.1262,10.8105 145.3012,10.7205 C145.4102,10.6645 145.5102,10.5945 145.6192,10.5385 C145.9512,10.3695 146.2852,10.2025 146.6212,10.0385 C146.6662,10.0165 146.7202,10.0135 146.7712,10.0045 C146.9442,9.9725 147.1192,9.9585 147.2762,9.8635 C147.3212,9.8355 147.3992,9.8695 147.4612,9.8635 C147.6112,9.8485 147.7612,9.8305 147.9112,9.8055 C147.9442,9.8005 147.9732,9.7615 148.0032,9.7365 C148.0302,9.7135 148.0552,9.6875 148.1062,9.6845 C148.0812,9.7275 148.0542,9.7705 148.0062,9.8515 C148.1592,9.8325 148.2772,9.8195 148.3942,9.8045 C148.4262,9.7995 148.4592,9.7755 148.4882,9.7815 C148.6152,9.8055 148.6712,9.7265 148.7112,9.6315 C148.7422,9.5585 148.7622,9.4805 148.7832,9.4035 C148.8112,9.3005 148.8472,9.2135 148.9282,9.1275 C148.9992,9.0535 148.9862,8.9025 149.0132,8.7855 C149.0742,8.5245 149.0932,8.2405 149.2132,8.0085 C149.3272,7.7845 149.3532,7.5595 149.4002,7.3285 C149.4252,7.2065 149.4842,7.0925 149.5232,6.9735 C149.6192,6.6775 149.7232,6.3825 149.7172,6.0645 C149.7172,6.0425 149.7242,6.0185 149.7332,5.9965 C149.8752,5.6435 150.0192,5.2915 150.1582,4.9365 C150.2032,4.8215 150.2302,4.6995 150.2732,4.5835 C150.3602,4.3465 150.4332,4.1005 150.5512,3.8795 C150.6212,3.7495 150.6752,3.5825 150.8482,3.5265 C150.8802,3.5155 150.8982,3.4725 150.9252,3.4485 C151.0002,3.3805 151.0652,3.2985 151.1882,3.3385 C151.2222,3.3495 151.2752,3.3345 151.3072,3.3135 C151.4762,3.2035 151.6422,3.0885 151.8082,2.9725 C151.8482,2.9445 151.8902,2.9155 151.9212,2.8775 C151.9752,2.8105 152.1192,2.7805 152.1812,2.8415 C152.2962,2.9515 152.3982,3.0725 152.5102,3.1845 C152.5642,3.2385 152.6212,3.2975 152.6872,3.3305 C152.8762,3.4245 152.9432,3.6315 152.8482,3.8175 C152.7562,3.9955 152.6772,4.1805 152.6042,4.3665 C152.5712,4.4495 152.5642,4.5425 152.5502,4.6325 C152.5472,4.6515 152.5612,4.6805 152.5762,4.6935 C152.6512,4.7555 152.7292,4.8135 152.8182,4.8815 C152.7822,4.9705 152.7482,5.0575 152.7072,5.1585 C152.5842,5.0625 152.5412,5.1215 152.5052,5.2215 C152.4732,5.3075 152.4052,5.3875 152.3952,5.4735 C152.3872,5.5465 152.4412,5.6265 152.4662,5.7025 C152.5002,5.6725 152.5452,5.6475 152.5632,5.6105 C152.5832,5.5685 152.5792,5.5145 152.5862,5.4555 C152.6142,5.5205 152.6622,5.5755 152.6522,5.6175 C152.6332,5.6945 152.6382,5.7975 152.5142,5.8195 C152.4702,5.8265 152.4272,5.8875 152.4012,5.9335 C152.3892,5.9555 152.4172,6.0005 152.4262,6.0345 C152.4572,6.0185 152.4882,6.0055 152.5152,5.9875 C152.5412,5.9705 152.5632,5.9475 152.5992,5.9165 C152.6032,6.0955 152.6172,6.2565 152.6042,6.4155 C152.5992,6.4755 152.5352,6.5315 152.4932,6.5965 C152.6192,6.6845 152.6312,6.7875 152.5472,6.9165 C152.5092,6.9735 152.5032,7.0515 152.4802,7.1275 C152.4722,7.1125 152.4682,7.1005 152.4612,7.0915 C152.4302,7.0535 152.4002,7.0155 152.3692,6.9775 C152.3422,7.0315 152.2862,7.0945 152.2982,7.1375 C152.3162,7.1985 152.2512,7.3275 152.4052,7.3005 C152.3412,7.3715 152.2842,7.4285 152.2392,7.4935 C152.2182,7.5225 152.2242,7.5705 152.2172,7.6095 C152.2612,7.6065 152.3042,7.6065 152.3472,7.6005 C152.3692,7.5975 152.3872,7.5825 152.3852,7.5835 C152.3872,7.6925 152.3912,7.8035 152.3912,7.9145 C152.3912,7.9425 152.3902,7.9775 152.3742,7.9965 C152.3072,8.0735 152.1972,8.1385 152.3352,8.2515 C152.3432,8.2585 152.2792,8.3325 152.2842,8.3695 C152.3042,8.5205 152.3332,8.6705 152.3732,8.8175 C152.3832,8.8535 152.4452,8.8885 152.4902,8.9015 C152.7092,8.9675 152.9312,9.0005 153.1642,8.9735 C153.3422,8.9525 153.5262,8.9765 153.7042,8.9535 C153.8922,8.9285 154.0782,8.8695 154.2632,8.8255 C154.3762,8.7995 154.4872,8.7645 154.6002,8.7465 C155.0352,8.6765 155.4702,8.6135 155.9052,8.5445 C155.9602,8.5365 156.0122,8.5115 156.0662,8.4955 C156.3362,8.4145 156.6012,8.3165 156.8762,8.2585 C157.0882,8.2125 157.3122,8.2185 157.5302,8.1955 C157.6132,8.1865 157.6942,8.1505 157.7772,8.1455 C158.1792,8.1215 158.5822,8.0845 158.9842,8.0895 C159.3102,8.0925 159.6352,8.1505 159.9622,8.1815 C160.2222,8.2065 160.4842,8.2315 160.7472,8.2495 C160.8442,8.2565 160.9442,8.2355 161.0422,8.2435 C161.2152,8.2595 161.3902,8.2835 161.5632,8.3105 C161.6062,8.3175 161.6472,8.3475 161.6862,8.3705 C161.7942,8.4355 161.9022,8.4995 162.0062,8.5705 C162.0492,8.6005 162.0822,8.6455 162.1202,8.6845 C162.0762,8.7215 162.0332,8.7605 161.9872,8.7945 C161.9652,8.8105 161.9372,8.8185 161.8772,8.8475 C161.9602,8.9385 162.0212,9.0325 162.1062,9.0895 Z" id="Fill-1" fill="#FEFEFE"></path>
                <path d="M135.2068,5.5311 C135.2838,5.6211 135.3308,5.6841 135.3858,5.7381 C135.4188,5.7701 135.4608,5.8031 135.5038,5.8111 C135.6068,5.8311 135.7188,5.8211 135.7788,5.9371 C135.7888,5.9571 135.8238,5.9751 135.8488,5.9761 C135.9818,5.9781 136.1168,5.9781 136.2508,5.9731 C136.4008,5.9671 136.5518,5.8161 136.6998,5.9791 C136.7038,5.9841 136.7178,5.9811 136.7278,5.9801 C136.8588,5.9691 136.9928,5.9671 137.1238,5.9441 C137.2008,5.9301 137.2428,5.9351 137.2818,6.0101 C137.3138,6.0731 137.3728,6.0961 137.4268,6.0231 C137.5408,5.8681 137.5588,5.8671 137.7348,5.9431 C137.8098,5.9741 137.8948,5.9961 137.9758,5.9941 C138.1148,5.9901 138.2548,5.9671 138.3938,5.9481 C138.5428,5.9291 138.6438,6.0101 138.7238,6.1341 C138.8628,6.3521 138.7728,6.5891 138.8128,6.8141 C138.8168,6.8381 138.7988,6.8661 138.7878,6.8901 C138.7618,6.9481 138.7128,7.0031 138.7108,7.0611 C138.6968,7.3231 138.6998,7.5851 138.6918,7.8471 C138.6868,7.9941 138.6708,8.1411 138.6668,8.2891 C138.6648,8.3641 138.6758,8.4391 138.6858,8.5131 C138.6968,8.5991 138.7248,8.6851 138.7238,8.7711 C138.7228,8.9741 138.6538,9.1731 138.7208,9.3811 C138.7658,9.5211 138.7608,9.6761 138.7948,9.8201 C138.8298,9.9701 138.8068,10.1341 139.0048,10.2331 C139.1448,10.3041 139.2268,10.4911 139.3428,10.6181 C139.4168,10.6981 139.4968,10.7891 139.5938,10.8301 C139.6928,10.8721 139.8158,10.8611 139.9288,10.8671 C139.9458,10.8691 139.9778,10.8461 139.9818,10.8291 C140.0158,10.6971 140.1018,10.7061 140.2018,10.7391 C140.2278,10.7471 140.2598,10.7441 140.2858,10.7361 C140.4978,10.6741 140.6468,10.4581 140.6408,10.2341 C140.6388,10.1651 140.6178,10.0681 140.6548,10.0301 C140.7968,9.8811 140.8048,9.6871 140.8498,9.5101 C140.8838,9.3781 140.8688,9.2321 140.8668,9.0921 C140.8578,8.5061 140.8468,7.9191 140.8368,7.3331 C140.8328,7.1191 140.8298,6.9061 140.8308,6.6921 C140.8308,6.5381 140.8378,6.3851 140.8438,6.2311 C140.8468,6.1361 140.8708,6.0311 140.9778,6.0311 C141.0998,6.0301 141.1948,5.8601 141.3308,5.9821 C141.3368,5.9871 141.3648,5.9721 141.3798,5.9621 C141.4418,5.9211 141.4988,5.8711 141.5648,5.8381 C141.6178,5.8111 141.6928,5.7431 141.7228,5.8711 C141.7248,5.8791 141.7778,5.8881 141.7958,5.8771 C141.9348,5.7861 141.9998,5.8111 142.0328,5.9841 C142.2058,5.9241 142.3928,5.9271 142.5508,5.8031 C142.7258,5.6671 142.8618,5.6861 143.0388,5.8201 C143.0608,5.8381 143.1028,5.8641 143.1158,5.8561 C143.2168,5.7881 143.3108,5.8371 143.4158,5.8441 C143.6578,5.8611 143.9118,5.8891 144.1418,5.7561 C144.1688,5.7401 144.2278,5.7391 144.2468,5.7571 C144.3478,5.8561 144.4678,5.7971 144.5778,5.8031 C144.6458,5.8071 144.7168,5.7841 144.7868,5.7761 C144.9988,5.7521 145.2118,5.7291 145.4338,5.7051 C145.4138,5.6481 145.4008,5.6101 145.3868,5.5651 C145.5448,5.5181 145.6988,5.4731 145.8538,5.4281 L145.8658,5.4701 C145.8098,5.5501 145.7628,5.6521 145.6648,5.5611 C145.6158,5.6121 145.5758,5.6531 145.5228,5.7071 C145.7328,5.6791 145.9448,5.7091 146.0648,5.4641 C146.1168,5.5741 146.1508,5.6461 146.1798,5.7081 C146.2878,5.6791 146.3998,5.6501 146.5408,5.6131 C146.4818,5.5781 146.4508,5.5611 146.4178,5.5411 C146.6158,5.3441 146.8648,5.2891 146.9918,5.4101 C147.0718,5.3531 147.1368,5.2091 147.2578,5.3591 C147.2638,5.3651 147.2848,5.3611 147.2988,5.3581 C147.4348,5.3301 147.5688,5.3011 147.6908,5.2761 C147.7128,5.1861 147.7298,5.1141 147.7478,5.0421 C147.7118,4.9961 147.6798,4.9401 147.6828,4.8851 C147.6938,4.6891 147.6358,4.5331 147.4618,4.4311 C147.3368,4.3591 147.3208,4.2481 147.3278,4.1171 C147.3368,3.9801 147.3328,3.8421 147.3228,3.7041 C147.3168,3.6191 147.2728,3.5331 147.2788,3.4491 C147.3058,3.0981 147.2418,3.0371 146.9488,2.9911 C146.9398,2.9891 146.9328,2.9831 146.9228,2.9801 C146.7848,2.9341 146.6488,2.8681 146.5068,2.8491 C146.3218,2.8231 146.1318,2.8411 145.9448,2.8281 C145.6578,2.8071 145.3658,2.9011 145.0828,2.7861 C145.0688,2.7811 145.0408,2.7861 145.0318,2.7971 C144.9598,2.8851 144.8668,2.8581 144.7728,2.8581 C144.6738,2.8581 144.5748,2.8881 144.4768,2.9011 C144.4318,2.9061 144.3848,2.9021 144.3388,2.9021 C144.2648,2.9021 144.1858,2.8851 144.1158,2.9051 C143.9498,2.9541 143.7898,2.9831 143.6098,2.9641 C143.3058,2.9321 143.0008,3.0371 142.6918,2.9901 C142.6708,2.9871 142.6468,3.0121 142.6258,3.0101 C142.4528,2.9981 142.2968,3.1901 142.1138,3.0531 C142.1068,3.0481 142.0888,3.0601 142.0748,3.0621 C141.9238,3.0871 141.7728,3.1101 141.6218,3.1351 C141.4958,3.1561 141.3538,3.1521 141.2458,3.2091 C141.1278,3.2711 141.0348,3.2781 140.9338,3.2051 C140.8358,3.1351 140.7568,3.1591 140.6658,3.2271 C140.6138,3.2651 140.5348,3.2761 140.4678,3.2831 C140.3658,3.2921 140.2588,3.2681 140.1618,3.2921 C139.9588,3.3431 139.8478,3.3011 139.7718,3.1161 C139.6388,3.1401 139.5058,3.1611 139.3738,3.1871 C139.3468,3.1931 139.3048,3.2131 139.2998,3.2321 C139.2688,3.3801 139.1638,3.3931 139.0508,3.3651 C138.9118,3.3321 138.7748,3.2881 138.6428,3.2371 C138.5478,3.2001 138.4658,3.1411 138.3588,3.2171 C138.3238,3.2411 138.2598,3.2271 138.2088,3.2261 C138.1168,3.2241 138.0218,3.2011 137.9358,3.2181 C137.8518,3.2341 137.7748,3.2901 137.6958,3.3291 C137.5948,3.1561 137.4878,3.1621 137.3678,3.3351 C137.3338,3.3851 137.2588,3.4071 137.1988,3.4381 C137.1778,3.4491 137.1308,3.4411 137.1268,3.4531 C137.0828,3.5711 137.0068,3.5611 136.9098,3.5261 C136.8778,3.5141 136.8298,3.5381 136.7908,3.5521 C136.7298,3.5721 136.6708,3.5961 136.6108,3.6191 C136.3938,3.7031 136.1428,3.6841 135.9478,3.8451 C135.8948,3.8891 135.8108,3.9061 135.7398,3.9151 C135.5458,3.9381 135.3958,4.1041 135.4008,4.3011 C135.4008,4.3321 135.3948,4.3711 135.3768,4.3941 C135.2928,4.4941 135.2058,4.5931 135.1138,4.6861 C134.9808,4.8211 134.9398,5.1081 135.0748,5.2241 C135.1968,5.3291 135.1998,5.4481 135.2068,5.5311" id="Fill-3" fill="#FEFEFE"></path>
                <path d="M138.1873,14.2625 C138.2503,14.2245 138.3043,14.1685 138.3713,14.1385 C138.5443,14.0595 138.7233,13.9905 138.8823,13.9255 C138.8813,13.8855 138.8733,13.8345 138.8813,13.8315 C138.9273,13.8145 138.9783,13.8025 139.0273,13.8035 C139.1533,13.8045 139.2793,13.8145 139.4053,13.8215 C139.4063,13.8075 139.4063,13.7945 139.4073,13.7815 C139.2753,13.7525 139.1433,13.7225 138.9783,13.6865 C139.1203,13.5105 139.2843,13.4745 139.4453,13.4375 C139.5863,13.4055 139.7313,13.3865 139.8733,13.3515 C139.9183,13.3415 139.9573,13.3025 139.9993,13.2765 C139.8723,13.2615 139.7603,13.2745 139.6493,13.2775 C139.5403,13.2805 139.4303,13.2725 139.3133,13.2685 C139.3873,13.1125 139.5153,13.0125 139.7053,12.9835 C140.0013,12.9365 140.2953,12.8885 140.4993,12.6695 C140.3183,12.5605 140.0993,12.6645 139.8893,12.5605 C139.7043,12.4695 139.4863,12.5665 139.2893,12.6265 C139.1443,12.6695 139.0003,12.6945 138.8573,12.6345 C138.8543,12.6175 138.8503,12.6025 138.8473,12.5865 C139.0853,12.5435 139.3233,12.5015 139.5673,12.4575 C139.5623,12.4255 139.5543,12.4035 139.5563,12.3825 C139.5733,12.2265 139.5353,12.1855 139.3733,12.1915 C139.3353,12.1925 139.2993,12.2045 139.2623,12.2095 C139.1503,12.2265 139.0383,12.2425 138.9193,12.2595 C138.9503,12.0225 138.9883,11.9755 139.1883,11.9705 C139.3083,11.9675 139.4303,12.0055 139.5513,12.0075 C139.7703,12.0105 139.9893,12.0005 140.2083,11.9955 C140.2123,11.9825 140.2183,11.9685 140.2233,11.9545 C140.1143,11.9125 140.0033,11.8705 139.8773,11.8215 C139.9463,11.7855 139.9993,11.7565 140.0593,11.7245 C139.9583,11.6645 139.8763,11.5845 139.7823,11.5655 C139.6703,11.5435 139.5443,11.5585 139.4323,11.5845 C139.1903,11.6395 138.9543,11.7185 138.7123,11.7775 C138.2713,11.8855 137.8273,11.9785 137.3873,12.0945 C137.0563,12.1805 136.7333,12.2955 136.4043,12.3885 C135.9763,12.5115 135.5453,12.6255 135.1173,12.7435 C135.0153,12.7715 134.9153,12.8025 134.7803,12.8415 C134.8133,12.7925 134.8353,12.7725 134.8323,12.7645 C134.7713,12.6295 134.7983,12.4985 134.8443,12.3675 C134.8973,12.2195 134.9303,12.0635 134.9993,11.9235 C135.0673,11.7845 135.1663,11.6615 135.2543,11.5335 C135.3863,11.3455 135.3493,11.0845 135.5203,10.9105 C135.5453,10.8845 135.5383,10.8245 135.5483,10.7625 C135.4853,10.7845 135.4413,10.8015 135.3713,10.8265 C135.4193,10.6595 135.4593,10.5135 135.5063,10.3705 C135.5293,10.3005 135.5533,10.2275 135.5933,10.1675 C135.7133,9.9925 135.7313,9.8045 135.7133,9.5985 C135.6973,9.4085 135.7563,9.2075 135.7123,9.0285 C135.6483,8.7745 135.5203,8.5365 135.4193,8.2915 C135.3433,8.1085 135.2043,8.0805 135.0703,8.2215 C134.9993,8.2955 134.9333,8.3775 134.8503,8.4365 C134.7963,8.4745 134.7153,8.4975 134.6493,8.4925 C134.4843,8.4805 134.3193,8.5615 134.2363,8.7155 C134.2203,8.7445 134.2003,8.7715 134.1773,8.7945 C134.0593,8.9205 133.9263,9.0355 133.8233,9.1725 C133.6363,9.4215 133.4663,9.6835 133.2893,9.9415 C133.4553,10.0455 133.4143,10.1975 133.2273,10.3225 C133.3033,10.4535 133.2793,10.5325 133.1343,10.6215 C133.1453,10.6515 133.1713,10.6855 133.1643,10.7095 C133.1253,10.8395 133.1183,10.9795 133.0103,11.0895 C132.9583,11.1425 132.9443,11.2375 132.9273,11.3165 C132.9123,11.3885 132.9313,11.4695 132.9113,11.5395 C132.8703,11.6805 132.8153,11.8185 132.7573,11.9535 C132.7203,12.0425 132.6663,12.1245 132.6203,12.2105 C132.5783,12.2885 132.5173,12.3635 132.5003,12.4465 C132.4633,12.6215 132.4943,12.8125 132.3643,12.9615 C132.3133,13.0205 132.2523,13.0725 132.1793,13.1435 C132.2303,13.1715 132.2703,13.1935 132.3103,13.2155 C132.2913,13.2225 132.2733,13.2295 132.2533,13.2365 C132.2553,13.3265 132.2573,13.4175 132.2593,13.5075 C132.2623,13.6225 132.2903,13.7435 132.1683,13.8255 C132.1473,13.8415 132.1353,13.8815 132.1303,13.9115 C132.1163,14.0175 132.0923,14.1235 132.0973,14.2285 C132.1073,14.4265 132.0363,14.5745 131.8723,14.6805 C131.8533,14.6925 131.8433,14.7165 131.8453,14.7155 C132.0143,15.0105 131.8693,15.2285 131.7243,15.4245 C131.7663,15.4915 131.8263,15.5455 131.8153,15.5755 C131.7513,15.7565 131.7913,15.9575 131.7453,16.1225 C131.6843,16.3375 131.7373,16.5385 131.7123,16.7445 C131.6843,16.9705 131.7173,17.2025 131.7083,17.4315 C131.6993,17.6745 131.6683,17.9155 131.6523,18.1585 C131.6433,18.2795 131.6313,18.4015 131.6413,18.5215 C131.6803,18.9895 131.7313,19.4565 131.7683,19.9245 C131.7763,20.0335 131.7713,20.1305 131.9453,20.1345 C131.7313,20.3605 131.8813,20.5715 131.9033,20.7765 C132.1253,20.7495 132.1233,20.9555 132.2133,21.0525 C132.2463,21.0875 132.2393,21.1595 132.2503,21.2155 L132.2033,21.2255 C132.1783,21.1755 132.1533,21.1255 132.1283,21.0755 C132.1213,21.1785 132.1553,21.2675 132.1553,21.3575 C132.1563,21.4265 132.1153,21.4955 132.1023,21.5355 C132.2033,21.5745 132.3033,21.5825 132.3433,21.6365 C132.3743,21.6765 132.3273,21.7745 132.3093,21.8715 C132.2463,21.8025 132.2033,21.7565 132.1603,21.7095 C132.1493,21.7165 132.1383,21.7225 132.1273,21.7295 C132.1733,21.8645 132.2243,21.9975 132.2653,22.1335 C132.2963,22.2405 132.3333,22.3335 132.4993,22.3225 C132.3723,22.4295 132.4083,22.5255 132.4453,22.6275 C132.5313,22.8615 132.5283,22.8625 132.7873,22.8725 C132.9463,22.8785 133.0203,22.9975 132.9713,23.1475 C132.8693,23.1395 132.7693,23.1325 132.6593,23.1245 C132.6653,23.3785 132.8143,23.5415 132.9433,23.7085 C132.9623,23.7335 133.0983,23.7125 133.1383,23.6715 C133.2643,23.5415 133.2613,23.5345 133.3473,23.6805 C133.4583,23.8675 133.6433,23.9325 133.8483,23.8705 C133.8823,23.8595 133.9363,23.9025 133.9763,23.9285 C134.0193,23.9545 134.0573,23.9905 134.0683,23.9985 C134.1323,23.9105 134.1663,23.8275 134.2253,23.7945 C134.2963,23.7555 134.3183,23.7155 134.3173,23.6415 C134.3163,23.5965 134.3243,23.5495 134.3373,23.5065 C134.4083,23.2905 134.4023,23.0845 134.2793,22.8865 C134.2623,22.8595 134.2683,22.8185 134.2653,22.7835 C134.2593,22.7265 134.2643,22.6665 134.2483,22.6125 C134.2163,22.5085 134.2513,22.3985 134.3453,22.3895 C134.4703,22.3785 134.4583,22.3255 134.4343,22.2295 C134.4163,22.1515 134.3843,22.0445 134.4943,21.9935 C134.6693,21.9095 134.6743,21.8725 134.5243,21.7565 C134.5223,21.5615 134.4733,21.3965 134.3583,21.2475 C134.3053,21.1805 134.2463,21.0995 134.2373,21.0195 C134.2133,20.8045 134.1803,20.5995 134.0493,20.4195 C134.0113,20.3665 133.9823,20.3025 133.9653,20.2395 C133.9063,19.9985 133.8713,19.7505 133.7913,19.5175 C133.7063,19.2645 133.6853,19.0165 133.7233,18.7565 C133.7373,18.6575 133.7433,18.5455 133.7103,18.4545 C133.6583,18.3045 133.6283,18.1755 133.7593,18.0615 C133.7383,17.9835 133.7363,17.9075 133.7433,17.8315 C133.7593,17.6575 133.7713,17.4805 133.8023,17.3075 C133.8233,17.1975 133.7343,17.0255 133.9533,17.0135 C133.8693,16.8675 133.8723,16.8685 133.9553,16.6925 C133.9743,16.6535 133.9863,16.5895 133.9673,16.5565 C133.9163,16.4705 133.9643,16.4235 134.0193,16.3785 C134.1263,16.2885 134.2373,16.2025 134.3483,16.1175 C134.4253,16.0585 134.5013,15.9935 134.5873,15.9495 C134.8163,15.8305 135.0573,15.7375 135.2773,15.6055 C135.6063,15.4085 135.9163,15.1825 136.2763,15.0375 C136.5093,14.9435 136.7323,14.8225 136.9583,14.7095 C137.0423,14.6675 137.1213,14.6075 137.2093,14.5745 C137.3033,14.5385 137.4073,14.5275 137.5043,14.4995 C137.6703,14.4535 137.8353,14.4065 137.9993,14.3525 C138.0653,14.3315 138.1273,14.2975 138.1873,14.2625" id="Fill-5" fill="#FEFEFE"></path>
                <path d="M131.5076,11.1512 C131.5166,11.1712 131.5256,11.1912 131.5346,11.2112 C131.4496,11.2492 131.3646,11.2882 131.2786,11.3272 C131.2716,11.3052 131.2636,11.2832 131.2556,11.2612 C131.3396,11.2252 131.4236,11.1882 131.5076,11.1512 M131.6806,14.7992 C131.6286,14.8072 131.5766,14.8142 131.5146,14.8232 C131.5266,14.7552 131.5336,14.7062 131.5426,14.6512 C131.3056,14.6432 131.0866,14.6722 130.8916,14.8072 C130.8656,14.8242 130.8306,14.8282 130.7986,14.8332 C130.6946,14.8482 130.5886,14.8542 130.4856,14.8762 C130.3286,14.9102 130.1936,15.0112 130.0156,14.9822 C129.9126,14.9652 129.7956,15.0512 129.7026,14.9372 C129.6986,14.9322 129.6716,14.9452 129.6546,14.9512 C129.2786,15.0782 128.9036,15.2052 128.5286,15.3352 C128.4766,15.3532 128.3946,15.3842 128.3906,15.4172 C128.3656,15.6142 128.2896,15.5112 128.2146,15.4512 C127.9336,15.6152 127.6296,15.5952 127.3246,15.5372 C127.2036,15.5142 127.1556,15.4222 127.2136,15.3222 C127.2486,15.2612 127.3166,15.2182 127.3696,15.1672 C127.4126,15.1262 127.4676,15.0922 127.4956,15.0432 C127.5906,14.8772 127.6746,14.7062 127.7836,14.4952 C127.7876,14.4822 127.7846,14.4112 127.8176,14.3872 C128.0226,14.2342 128.2266,14.0742 128.4476,13.9502 C128.6076,13.8612 128.7966,13.8272 128.9696,13.7612 C129.1476,13.6942 129.3416,13.6472 129.4076,13.4302 C129.4146,13.4102 129.4356,13.3882 129.4546,13.3802 C129.7076,13.2742 129.9196,13.0782 130.2116,13.0532 C130.3106,13.0452 130.4036,12.9692 130.4976,12.9222 C130.5346,12.9032 130.5686,12.8572 130.6026,12.8592 C130.7956,12.8652 130.9536,12.7762 131.1126,12.6852 C131.1896,12.6412 131.2626,12.5982 131.1906,12.4992 C131.2436,12.4612 131.3036,12.4372 131.3306,12.3942 C131.3906,12.3032 131.4326,12.2022 131.4876,12.0932 C131.4806,12.0852 131.4516,12.0552 131.4186,12.0222 C131.4466,11.9902 131.4706,11.9642 131.5056,11.9262 C131.4296,11.9402 131.3746,11.9502 131.3196,11.9612 C131.3126,11.9472 131.3066,11.9342 131.2996,11.9212 C131.3846,11.8602 131.4656,11.7922 131.5556,11.7402 C131.6476,11.6882 131.6516,11.6312 131.5846,11.5312 C131.4976,11.7762 131.3376,11.6032 131.2086,11.6022 C131.2056,11.6502 131.2056,11.6782 131.2016,11.7062 C131.1836,11.8672 131.1526,11.8852 131.0006,11.8362 C130.9766,11.8282 130.9456,11.8292 130.9206,11.8372 C130.8186,11.8692 130.7176,11.9082 130.6136,11.9392 C130.5136,11.9672 130.4106,11.9882 130.3096,12.0122 C130.3006,11.9982 130.2916,11.9842 130.2826,11.9702 C130.3466,11.9082 130.3986,11.8222 130.4746,11.7892 C130.7146,11.6812 130.9626,11.5892 131.2096,11.4992 C131.3326,11.4552 131.4626,11.4312 131.5866,11.3932 C131.7426,11.3452 131.8346,11.2392 131.8426,11.1072 C131.6746,11.1472 131.5906,11.0992 131.5976,10.9672 C131.4976,10.9862 131.3996,11.0052 131.2996,11.0242 C131.2956,11.0112 131.2916,10.9992 131.2876,10.9862 C131.3136,10.9462 131.3386,10.9052 131.3666,10.8602 C131.1686,10.8332 130.9576,10.9402 130.7746,10.7542 C130.8576,10.6942 130.9296,10.6302 131.0126,10.5842 C131.1996,10.4812 131.2256,10.1812 131.5176,10.2062 C131.5096,10.1882 131.5016,10.1712 131.4936,10.1522 L131.1806,10.1932 C131.1746,10.1862 131.1696,10.1782 131.1636,10.1702 C131.2316,10.1142 131.2996,10.0592 131.3756,9.9962 C131.3386,9.9662 131.3096,9.9422 131.2796,9.9172 C131.3096,9.8622 131.3346,9.8152 131.3626,9.7642 C131.1976,9.7482 131.1526,9.7942 131.1656,9.9582 C131.1736,10.0582 131.1796,10.1512 131.0496,10.1752 C130.9476,10.1932 130.8466,10.2142 130.7436,10.2302 C130.7156,10.2342 130.6686,10.2302 130.6576,10.2132 C130.6416,10.1872 130.6396,10.1442 130.6466,10.1102 C130.6526,10.0822 130.6786,10.0582 130.7176,9.9992 C130.4636,10.0232 130.2406,10.0432 130.0176,10.0642 C130.0186,10.0712 130.0186,10.0782 130.0186,10.0852 C130.0796,10.0872 130.1406,10.0892 130.2186,10.0922 C130.1986,10.1302 130.1936,10.1622 130.1786,10.1682 C130.0486,10.2142 129.9186,10.2662 129.7836,10.2922 C129.7276,10.3022 129.6596,10.2522 129.5966,10.2292 C129.6016,10.1962 129.6066,10.1632 129.6156,10.0992 C129.2786,10.2092 128.9606,10.3052 128.6496,10.4162 C128.2316,10.5652 127.8176,10.7242 127.4026,10.8812 C127.2666,10.9332 127.1396,11.0192 126.9996,11.0462 C126.7496,11.0932 126.5656,11.2892 126.3046,11.3162 C126.1746,11.3292 126.0536,11.4192 125.9306,11.4792 C125.8376,11.5242 125.7356,11.5632 125.6606,11.6302 C125.5816,11.7022 125.5126,11.7392 125.4486,11.7022 C125.3126,11.8042 125.1906,11.8912 125.0726,11.9832 C124.9816,12.0532 124.8956,12.1302 124.8066,12.2042 C124.6656,12.3242 124.6396,12.5022 124.5706,12.6692 C124.6936,12.7062 124.8136,12.7432 124.9456,12.7832 C124.8866,12.8682 124.8396,12.9352 124.7946,12.9992 C124.9626,13.0742 125.1206,13.1372 125.2736,13.2132 C125.4226,13.2882 125.4916,13.4642 125.4286,13.6142 C125.3306,13.8462 125.2186,14.0712 125.1176,14.3022 C125.0176,14.5332 124.9096,14.7622 124.8296,15.0002 C124.7296,15.3002 124.6416,15.6062 124.5696,15.9142 C124.4976,16.2212 124.4526,16.5342 124.3946,16.8442 C124.3626,17.0112 124.3126,17.1752 124.2966,17.3432 C124.2876,17.4302 124.3566,17.5232 124.3556,17.6112 C124.3536,17.7592 124.3526,17.8902 124.5036,17.9742 C124.5426,17.9962 124.5566,18.0612 124.5826,18.1042 C124.6136,18.1542 124.6476,18.2012 124.6786,18.2512 C124.7156,18.3102 124.7536,18.3682 124.7866,18.4302 C124.8416,18.5312 124.8856,18.6402 124.9486,18.7352 C124.9716,18.7692 125.0376,18.7942 125.0816,18.7912 C125.2896,18.7772 125.5036,18.7772 125.7036,18.7272 C125.9266,18.6722 126.1696,18.6832 126.3686,18.5382 C126.4076,18.5092 126.4706,18.4882 126.5156,18.4972 C126.7506,18.5422 126.8636,18.3512 126.9936,18.2302 C127.0626,18.1672 127.1236,18.1442 127.1976,18.1172 C127.3146,18.0762 127.4316,18.0372 127.5426,17.9872 C127.6196,17.9532 127.6866,17.8982 127.7616,17.8602 C127.8756,17.8022 127.9936,17.7512 128.1106,17.6962 C128.1726,17.6662 128.2346,17.6342 128.2926,17.6052 C128.2786,17.5582 128.2686,17.5212 128.2656,17.5112 C128.3946,17.4302 128.5046,17.3612 128.5956,17.3052 C128.6706,17.3512 128.7256,17.3852 128.7806,17.4192 C128.8066,17.4342 128.8546,17.4512 128.8536,17.4642 C128.8506,17.4932 128.8286,17.5262 128.8066,17.5472 C128.7866,17.5662 128.7556,17.5722 128.7306,17.5832 C128.7426,17.5992 128.7556,17.6152 128.7686,17.6302 C128.9726,17.6062 129.1676,17.5772 129.3216,17.4012 C129.4356,17.2722 129.5806,17.1722 129.7136,17.0602 C129.7406,17.0362 129.7996,17.0152 129.7986,16.9952 C129.7906,16.7882 129.9706,16.7782 130.0886,16.7032 C130.1326,16.6752 130.1646,16.6282 130.1976,16.5872 C130.2246,16.5542 130.2436,16.5172 130.2666,16.4822 C130.2926,16.5112 130.3206,16.5402 130.3786,16.6042 C130.4056,16.5062 130.4266,16.4332 130.4476,16.3552 C130.3556,16.3352 130.3326,16.2742 130.3866,16.2132 C130.4406,16.1512 130.5146,16.1032 130.5866,16.0642 C130.7266,15.9872 130.8706,15.9212 131.0126,15.8502 L130.9976,15.8072 C130.9706,15.8002 130.9436,15.7932 130.8836,15.7782 C130.9826,15.6452 131.0706,15.5262 131.1586,15.4082 C131.1306,15.3972 131.0966,15.3832 131.0366,15.3612 C131.0946,15.3172 131.1356,15.2892 131.1726,15.2562 C131.1956,15.2352 131.2306,15.2022 131.2266,15.1842 C131.1966,15.0762 131.2756,15.0402 131.3436,15.0012 C131.4566,14.9372 131.5746,14.8792 131.6916,14.8192 C131.6876,14.8122 131.6846,14.8052 131.6806,14.7992" id="Fill-7" fill="#FEFEFE"></path>
                <path d="M132.5437,5.639 C132.5737,5.802 132.5167,5.871 132.3697,5.875 C132.2727,5.877 132.1757,5.909 132.0777,5.926 C132.0537,5.93 132.0277,5.925 131.9947,5.902 C132.1857,5.826 132.3177,5.641 132.5437,5.639 M124.3767,8.991 C124.4717,9.004 124.5667,9.039 124.6597,9.032 C124.8987,9.013 125.1147,9.08 125.3227,9.177 C125.6617,9.334 125.9927,9.505 126.3287,9.667 C126.3637,9.684 126.4357,9.698 126.4437,9.683 C126.5087,9.58 126.5757,9.632 126.6497,9.665 C126.7697,9.718 126.8917,9.766 127.0157,9.809 C127.0557,9.823 127.1077,9.829 127.1477,9.815 C127.3977,9.725 127.6457,9.629 127.8937,9.533 C127.9847,9.497 128.0707,9.442 128.1647,9.422 C128.4637,9.36 128.7307,9.182 129.0427,9.18 C129.2947,9.177 129.4347,8.968 129.5787,8.832 C129.7407,8.68 129.9327,8.721 130.0937,8.629 C130.0787,8.659 130.0647,8.688 130.0397,8.738 C130.1057,8.715 130.1647,8.71 130.1977,8.679 C130.3517,8.533 130.4917,8.375 130.6477,8.232 C130.7027,8.181 130.7847,8.159 130.8547,8.124 C130.8607,8.136 130.8687,8.146 130.8757,8.158 C130.8557,8.218 130.8347,8.279 130.8147,8.339 C130.8257,8.347 130.8367,8.355 130.8477,8.363 L131.2487,8.054 C131.2427,7.805 131.5237,7.772 131.6047,7.586 C131.6087,7.576 131.6377,7.575 131.6547,7.573 C131.8357,7.549 131.9937,7.493 132.0707,7.306 C132.0817,7.279 132.1197,7.26 132.1487,7.246 C132.1997,7.223 132.2577,7.214 132.3067,7.187 C132.4887,7.087 132.6587,6.95 132.8537,6.887 C133.1037,6.806 133.3907,6.458 133.3417,6.196 C133.3247,6.107 133.3537,6.093 133.4197,6.068 C133.4857,6.043 133.5467,5.999 133.6097,5.963 C133.6037,5.951 133.5967,5.939 133.5897,5.928 C133.4617,5.978 133.3327,6.025 133.2077,6.082 C133.0287,6.162 132.8557,6.255 132.6777,6.334 C132.5997,6.369 132.5237,6.352 132.5027,6.254 C132.4817,6.162 132.6117,5.919 132.6997,5.866 C132.8367,6.017 132.9397,5.861 133.0477,5.824 C133.2167,5.766 133.2327,5.728 133.2067,5.578 C133.1087,5.557 133.0467,5.806 132.9267,5.612 C132.8727,5.639 132.8147,5.66 132.7647,5.693 C132.6677,5.756 132.5957,5.746 132.5457,5.639 L132.5467,5.639 C132.5627,5.304 132.5627,5.304 132.8057,5.215 C132.5887,5.163 132.4077,5.347 132.1997,5.31 C132.1317,5.479 132.1297,5.48 132.0077,5.465 C132.0197,5.41 132.0307,5.356 132.0427,5.298 C132.0007,5.291 131.9637,5.284 131.9067,5.274 C131.9417,5.23 131.9657,5.202 131.9887,5.173 C131.8617,5.15 131.7317,5.25 131.7207,5.363 C131.7167,5.404 131.6827,5.443 131.6587,5.487 C131.6127,5.402 131.5857,5.346 131.5527,5.294 C131.5087,5.225 131.5257,5.173 131.6007,5.152 C131.6867,5.128 131.7797,5.126 131.8657,5.101 C131.9067,5.089 131.9567,5.052 131.9697,5.015 C131.9857,4.965 131.9807,4.901 131.9657,4.847 C131.9557,4.81 131.9107,4.751 131.8897,4.754 C131.8407,4.762 131.7917,4.795 131.7527,4.83 C131.7317,4.849 131.7317,4.893 131.7217,4.925 C131.7147,4.912 131.7077,4.898 131.6997,4.885 C131.6377,4.886 131.5697,4.873 131.5137,4.891 C131.2797,4.965 131.0507,5.05 130.8187,5.129 C130.6217,5.197 130.4277,5.289 130.2247,5.321 C130.0337,5.349 129.8497,5.345 129.6617,5.436 C129.3587,5.583 129.0257,5.664 128.7197,5.801 C128.2827,5.995 127.8587,6.218 127.4287,6.424 C126.7677,6.74 126.1057,7.054 125.4417,7.365 C125.0697,7.539 124.6947,7.703 124.3217,7.875 C124.2887,7.89 124.2587,7.921 124.2357,7.952 C124.1487,8.071 124.0677,8.193 123.9817,8.311 C123.9377,8.372 123.8847,8.428 123.8107,8.514 C124.0367,8.543 123.9997,8.693 123.9957,8.821 C124.0627,8.827 124.1127,8.831 124.1707,8.836 C124.1637,8.883 124.1577,8.923 124.1507,8.962 C124.2317,8.972 124.3047,8.98 124.3767,8.991" id="Fill-9" fill="#FEFEFE"></path>
                <path d="M129.7391,17.679 C129.8211,17.653 129.8911,17.631 129.9611,17.608 C129.9631,17.595 129.9661,17.581 129.9681,17.568 C129.8881,17.557 129.8101,17.546 129.7221,17.533 C129.7291,17.593 129.7331,17.633 129.7391,17.679" id="Fill-11" fill="#FEFEFE"></path>
                <g id="Group-15" transform="translate(113.000000, 0.096500)">
                    <mask id="mask-2" fill="white">
                        <use xlink:href="#path-1"></use>
                    </mask>
                    <g id="Clip-14"></g>
                    <path d="M0.2908,10.4741 C0.2828,10.6941 0.2668,10.9131 0.2598,11.1321 C0.2588,11.1631 0.2908,11.1951 0.3068,11.2231 C0.3688,11.1831 0.4228,11.1491 0.5088,11.0931 C0.5128,11.2571 0.5148,11.3741 0.5178,11.4921 C0.5308,11.4951 0.5448,11.4981 0.5578,11.5011 C0.5808,11.4511 0.6088,11.4011 0.6248,11.3481 C0.6628,11.2221 0.6908,11.0931 0.7318,10.9681 C0.7418,10.9371 0.7858,10.9161 0.8138,10.8911 C0.8328,10.9201 0.8688,10.9521 0.8658,10.9801 C0.8578,11.1011 0.8398,11.2221 0.8218,11.3421 C0.8058,11.4521 0.7868,11.5621 0.7698,11.6721 C0.8548,11.6041 0.9108,11.5301 0.9638,11.4541 C1.0478,11.3331 1.0718,11.4201 1.1028,11.5071 C1.1728,11.4111 1.2298,11.4351 1.2758,11.5211 C1.4228,11.4241 1.3708,11.2751 1.3838,11.1531 C1.3948,11.0521 1.4108,10.9991 1.5208,10.9831 C1.6778,10.9621 1.7388,10.9871 1.7938,11.1281 C1.8088,11.1661 1.8248,11.2031 1.8518,11.2661 C1.9738,11.0911 2.1008,10.9431 2.1858,10.7741 C2.2278,10.6911 2.2418,10.6111 2.3468,10.5881 C2.3608,10.5851 2.3768,10.5521 2.3788,10.5311 C2.3828,10.4921 2.3768,10.4531 2.3738,10.4131 C2.4398,10.4101 2.5068,10.4101 2.5728,10.4021 C2.6248,10.3961 2.6868,10.3961 2.7248,10.3671 C2.8118,10.2971 2.8888,10.2151 2.9628,10.1321 C3.0258,10.0591 3.0798,9.9781 3.1518,9.8801 C3.0428,9.8521 2.9688,9.8331 2.8508,9.8031 C2.9028,9.7421 2.9838,9.6901 2.9808,9.6441 C2.9648,9.4211 3.1358,9.4871 3.2458,9.4501 C3.2668,9.3911 3.2708,9.3081 3.3158,9.2671 C3.3808,9.2081 3.4738,9.1801 3.5868,9.1221 C3.4238,9.0741 3.4638,9.0011 3.5208,8.9541 C3.5968,8.8921 3.6838,8.8341 3.7748,8.8051 C3.9268,8.7571 4.0838,8.7201 4.2408,8.7031 C4.5708,8.6661 4.9068,8.5991 5.2118,8.8091 C5.2258,8.8191 5.2488,8.8151 5.2678,8.8151 C5.5948,8.8151 5.9168,8.8461 6.2418,8.8961 C6.4648,8.9311 6.7038,8.8771 6.9328,8.8441 C7.0148,8.8311 7.0838,8.7521 7.1658,8.7221 C7.2758,8.6821 7.3938,8.6601 7.5148,8.6271 C7.4478,8.5161 7.3618,8.4331 7.2398,8.4581 C7.0168,8.5041 6.9718,8.4891 6.8888,8.2681 C7.0518,8.1681 7.2208,8.1591 7.4848,8.2061 C7.5678,8.2221 7.6638,8.1941 7.7488,8.1711 C7.8798,8.1351 8.0078,8.0871 8.1368,8.0421 C8.1558,8.0361 8.1718,8.0171 8.1878,8.0051 C8.1288,7.8641 8.0358,7.7871 7.8948,7.7391 C7.7808,7.7001 7.6238,7.7231 7.5618,7.5691 C7.5598,7.5641 7.5008,7.5871 7.4678,7.5881 C7.3998,7.5911 7.3308,7.5961 7.2648,7.5861 C7.2138,7.5781 7.1648,7.5531 7.1158,7.5311 C7.0728,7.5111 7.0198,7.4951 6.9938,7.4591 C6.9808,7.4411 7.0078,7.3641 7.0338,7.3521 C7.0698,7.3361 7.1228,7.3571 7.1738,7.3631 C7.1938,7.3321 7.2138,7.2741 7.2528,7.2511 C7.4768,7.1231 7.4778,7.1261 7.3728,6.9471 C7.4218,6.8711 7.4658,6.8011 7.5248,6.7081 C7.4498,6.6781 7.3908,6.6401 7.3258,6.6311 C7.2278,6.6161 7.1978,6.5711 7.2178,6.4781 C7.2348,6.3971 7.2448,6.3151 7.2548,6.2561 C7.1858,6.2081 7.1098,6.1821 7.0768,6.1291 C6.9558,5.9321 6.7518,5.8601 6.5648,5.7611 C6.4408,5.6961 6.3068,5.6491 6.1858,5.5791 C5.8688,5.3941 5.5528,5.2101 5.2478,5.0091 C5.0218,4.8601 4.7918,4.7081 4.6748,4.4451 C4.6598,4.4121 4.6348,4.3781 4.6038,4.3581 C4.5268,4.3041 4.5358,4.2501 4.5798,4.1781 C4.6068,4.1341 4.6158,4.0781 4.6238,4.0251 C4.6318,3.9751 4.6118,3.9161 4.6308,3.8721 C4.7298,3.6461 4.7958,3.4151 4.8278,3.1681 C4.8488,3.0161 4.9078,2.8611 4.9818,2.7251 C5.0588,2.5861 5.0678,2.3971 4.9928,2.2541 C4.9098,2.0951 4.8268,1.9261 4.7968,1.7521 C4.7718,1.6111 4.7548,1.4751 4.7048,1.3371 C4.6378,1.1491 4.5298,1.0331 4.3428,0.9811 C4.2978,0.9691 4.2478,0.9621 4.2108,0.9361 C4.1218,0.8761 4.0618,0.9061 3.9848,0.9661 C3.8778,1.0501 3.7558,1.1161 3.6398,1.1871 C3.6248,1.1961 3.5998,1.1961 3.5838,1.1891 C3.4698,1.1341 3.3988,1.2051 3.3248,1.2741 C3.2808,1.3151 3.2318,1.3561 3.1798,1.3831 C2.9108,1.5171 2.7138,1.6991 2.7268,2.0291 C2.7268,2.0381 2.7238,2.0491 2.7188,2.0561 C2.6478,2.1481 2.5738,2.2391 2.5068,2.3341 C2.4628,2.3971 2.4328,2.4701 2.3878,2.5331 C2.3448,2.5921 2.2928,2.6451 2.2418,2.6991 C2.2158,2.7261 2.1598,2.7491 2.1598,2.7751 C2.1568,2.9551 2.0378,2.9461 1.9338,2.9391 C1.8888,3.0381 1.8728,3.1421 1.8118,3.1991 C1.6458,3.3501 1.5668,3.5371 1.5198,3.7471 C1.5078,3.8051 1.4748,3.8571 1.4518,3.9121 C1.3928,4.0641 1.2678,4.2251 1.2888,4.3641 C1.3268,4.6091 1.1218,4.7661 1.1378,4.9861 C1.1378,4.9931 1.1278,5.0021 1.1208,5.0081 C0.9878,5.1331 0.9548,5.2831 0.9758,5.4641 C0.9878,5.5751 0.9668,5.7011 0.9248,5.8071 C0.8358,6.0351 0.6908,6.2391 0.6378,6.4831 C0.5958,6.6771 0.5018,6.8691 0.5058,7.0601 C0.5098,7.2881 0.4138,7.4411 0.2888,7.5761 C0.2918,7.7001 0.3328,7.8281 0.2888,7.9111 C0.1508,8.1781 0.3158,8.4751 0.1808,8.7361 C0.1738,8.7491 0.1958,8.7761 0.2018,8.7981 C0.2258,8.8911 0.2718,8.9851 0.2668,9.0761 C0.2538,9.2621 0.2338,9.4531 0.1798,9.6301 C0.1058,9.8651 0.2338,10.0561 0.2698,10.2671 C0.2808,10.3351 0.2928,10.4061 0.2908,10.4741" id="Fill-13" fill="#FEFEFE" mask="url(#mask-2)"></path>
                </g>
                <path d="M122.9529,10.8167 C122.9639,10.7927 122.9769,10.7677 122.9859,10.7417 C123.0049,10.6827 123.0539,10.5897 123.0329,10.5687 C122.9659,10.5017 122.8659,10.4117 122.7889,10.4207 C122.4919,10.4517 122.1989,10.5217 121.9029,10.5697 C121.8069,10.5857 121.7079,10.5757 121.5879,10.5787 C121.6309,10.5137 121.6549,10.4757 121.6809,10.4377 C121.4189,10.4547 121.1759,10.5807 120.9009,10.5557 C120.9249,10.4927 120.9569,10.4517 120.9949,10.4177 C121.0369,10.3797 121.0849,10.3487 121.1309,10.3147 C121.1209,10.2987 121.1119,10.2817 121.1029,10.2657 C120.7959,10.3537 120.4829,10.4307 120.1809,10.5337 C119.9329,10.6187 119.6979,10.7357 119.4569,10.8367 C119.3679,10.8737 119.2779,10.9377 119.1889,10.8317 C119.1799,10.8207 119.1439,10.8247 119.1239,10.8307 C118.8539,10.9087 118.5849,10.9857 118.3159,11.0687 C118.1519,11.1197 117.9899,11.1797 117.8259,11.2317 C117.6969,11.2727 117.6569,11.4127 117.5139,11.4627 C117.2279,11.5627 116.8979,11.5927 116.6869,11.8557 C116.6799,11.8657 116.6619,11.8687 116.6489,11.8717 C116.5379,11.9007 116.4279,11.9277 116.3169,11.9587 C116.2859,11.9667 116.2549,11.9767 116.2279,11.9937 C116.1019,12.0747 115.9869,12.1797 115.8499,12.2347 C115.7069,12.2927 115.5519,12.3127 115.4089,12.3957 C115.1249,12.5587 114.8109,12.6717 114.5349,12.8447 C114.3409,12.9657 114.1879,13.1517 114.0149,13.3077 C113.9389,13.3767 113.8619,13.4437 113.7809,13.5067 C113.5939,13.6517 113.3869,13.7757 113.2959,14.0157 C113.2699,14.0837 113.2239,14.1457 113.1789,14.2037 C113.1319,14.2627 113.0549,14.3037 113.0249,14.3687 C112.9689,14.4897 112.9569,14.6347 112.8899,14.7477 C112.8109,14.8747 112.7959,14.9807 112.8719,15.1087 C112.9329,15.2127 112.8509,15.3777 112.7339,15.4097 C112.7089,15.4177 112.6689,15.4517 112.6719,15.4647 C112.6799,15.4937 112.7059,15.5367 112.7299,15.5417 C112.8869,15.5717 113.0459,15.5737 113.1599,15.7237 C113.2029,15.7797 113.3059,15.8047 113.3849,15.8167 C113.4779,15.8307 113.5769,15.8167 113.6729,15.8107 C113.7319,15.8067 113.7909,15.7927 113.8499,15.7847 C113.8909,15.7787 113.9349,15.7837 113.9739,15.7707 C114.0309,15.7507 114.1019,15.7327 114.1379,15.6897 C114.2359,15.5677 114.3489,15.5057 114.5109,15.5017 C114.6119,15.4997 114.7479,15.4717 114.8059,15.4027 C114.9269,15.2577 115.0929,15.2637 115.2379,15.2367 C115.3839,15.2097 115.5289,15.2077 115.6639,15.1297 C115.7179,15.0987 115.7969,15.1037 115.8629,15.1067 C115.9899,15.1117 116.1169,15.1447 116.2409,15.1317 C116.3219,15.1247 116.3999,15.0627 116.4739,15.0167 C116.5179,14.9887 116.5479,14.9317 116.5939,14.9127 C116.6659,14.8817 116.7519,14.8837 116.8239,14.8517 C116.8739,14.8297 116.9429,14.7757 116.9449,14.7337 C116.9509,14.6147 117.0299,14.5717 117.1119,14.5267 C117.2299,14.4617 117.3529,14.4047 117.4709,14.3377 C117.8339,14.1257 118.1909,13.9037 118.5579,13.6997 C118.8069,13.5617 119.0639,13.4417 119.3209,13.3227 C119.5999,13.1927 119.8879,13.0817 120.1639,12.9457 C120.3869,12.8377 120.5959,12.7007 120.8139,12.5857 C121.0889,12.4407 121.3689,12.3067 121.6429,12.1627 C121.7469,12.1087 121.8439,12.0407 121.9399,11.9737 C122.1659,11.8187 122.3829,11.6497 122.6149,11.5067 C122.9219,11.3167 123.2399,11.1457 123.5549,10.9687 C123.5879,10.9507 123.6279,10.9457 123.6649,10.9337 C123.6469,10.9127 123.6299,10.8917 123.6109,10.8707 C123.4009,10.7727 123.1569,11.0327 122.9529,10.8167" id="Fill-16" fill="#FEFEFE"></path>
                <path d="M121.0545,7.6273 C121.1285,7.6473 121.1745,7.6203 121.1545,7.5323 C121.1475,7.5063 121.1365,7.4813 121.1225,7.4433 C121.1895,7.4223 121.2475,7.4043 121.3165,7.3823 C121.2925,7.3083 121.2765,7.2413 121.2505,7.1773 C121.2405,7.1483 121.2055,7.1033 121.1915,7.1063 C121.1565,7.1133 121.1255,7.1453 121.0955,7.1663 C121.1535,7.2113 121.1935,7.2433 121.2335,7.2743 C121.2195,7.2913 121.2055,7.3083 121.1925,7.3253 C121.1515,7.3023 121.1105,7.2783 121.0335,7.2353 C121.0675,7.3423 121.0905,7.4203 121.1155,7.5013 C120.9795,7.6053 120.9755,7.3723 120.8385,7.4193 C120.8495,7.4593 120.8475,7.5243 120.8785,7.5523 C120.9245,7.5913 120.9925,7.6113 121.0545,7.6273" id="Fill-18" fill="#FEFEFE"></path>
                <path d="M108.9627,14.1776 C108.9357,14.1776 108.8937,14.1616 108.8847,14.1416 C108.8737,14.1176 108.8817,14.0656 108.9007,14.0536 C109.0047,13.9876 109.1137,13.9286 109.2217,13.8676 C109.2307,13.8836 109.2387,13.8996 109.2487,13.9156 C109.2287,13.9956 109.0337,14.1786 108.9627,14.1776 M108.8227,14.6426 C108.8077,14.6256 108.7907,14.6086 108.7747,14.5926 C108.8787,14.4886 108.9837,14.3856 109.0887,14.2816 L109.1297,14.3236 C109.0277,14.4296 108.9257,14.5356 108.8227,14.6426 M108.5237,14.6206 C108.5477,14.5156 108.5597,14.4336 108.5877,14.3586 C108.5987,14.3286 108.6477,14.3136 108.6787,14.2916 C108.6947,14.3206 108.7197,14.3476 108.7277,14.3786 C108.7607,14.5236 108.6697,14.5766 108.5237,14.6206 M108.5417,14.9706 C108.3367,15.1716 108.1317,15.3726 107.9177,15.5816 C107.9087,15.4396 108.4217,14.8836 108.6127,14.8276 C108.5837,14.8856 108.5637,14.9286 108.5417,14.9706 M107.8197,15.2466 C107.8637,15.1776 107.9037,15.1056 107.9537,15.0416 C107.9647,15.0276 108.0207,15.0306 108.0377,15.0456 C108.0557,15.0596 108.0647,15.1146 108.0517,15.1276 C107.9967,15.1856 107.9337,15.2356 107.8727,15.2886 C107.8557,15.2746 107.8377,15.2606 107.8197,15.2466 M108.2807,14.7146 C108.2727,14.8376 108.1727,14.8816 108.0917,14.9426 C108.0697,14.9226 108.0487,14.9026 108.0257,14.8826 C108.1007,14.8166 108.1737,14.7506 108.2477,14.6836 C108.2587,14.6946 108.2707,14.7046 108.2807,14.7146 M107.3767,15.3106 C107.3527,15.3336 107.3247,15.3646 107.2967,15.3666 C107.1027,15.3846 107.0717,15.5276 107.0117,15.6786 C106.9027,15.9526 106.7037,16.1726 106.4837,16.3696 C106.4007,16.4436 106.3107,16.5096 106.2317,16.5876 C106.1987,16.6196 106.1897,16.6746 106.1677,16.7196 C106.1447,16.7666 106.1307,16.8296 106.0927,16.8596 C105.9807,16.9486 105.8467,17.0116 105.7407,17.1076 C105.6427,17.1976 105.5687,17.3146 105.4847,17.4196 C105.3827,17.5476 105.2757,17.6726 105.1787,17.8046 C105.1207,17.8826 105.0827,17.9756 105.0247,18.0536 C104.9757,18.1226 104.9177,18.1936 104.8487,18.2396 C104.7307,18.3186 104.6237,18.3956 104.6237,18.5556 C104.6237,18.5826 104.6167,18.6136 104.6037,18.6366 C104.5127,18.8026 104.4137,18.9646 104.3297,19.1346 C104.3107,19.1736 104.3317,19.2376 104.3447,19.2876 C104.3587,19.3426 104.4107,19.4066 104.3947,19.4426 C104.3757,19.4826 104.2977,19.4926 104.2467,19.5196 C104.2037,19.5416 104.1607,19.5626 104.1237,19.5926 C104.0797,19.6276 104.0427,19.6706 104.0027,19.7106 C103.9837,19.6996 103.9667,19.6896 103.9487,19.6786 C104.0027,19.5456 104.0487,19.4076 104.1117,19.2796 C104.2337,19.0316 104.3447,18.7746 104.4997,18.5476 C104.8317,18.0606 105.1917,17.5936 105.5337,17.1136 C105.6687,16.9256 105.7677,16.7096 105.9147,16.5336 C106.1657,16.2346 106.3827,15.9076 106.6837,15.6496 C106.8927,15.4696 107.0637,15.2456 107.2557,15.0456 C107.4347,14.8596 107.5987,14.6496 107.8057,14.5016 C108.0007,14.3616 108.1837,14.1796 108.4417,14.1406 C108.4657,14.1366 108.4837,14.0956 108.5087,14.0756 C108.5487,14.0416 108.5907,14.0096 108.6317,13.9766 C108.5937,14.2766 108.3777,14.3656 108.1567,14.4346 C108.1487,14.4726 108.1507,14.5216 108.1277,14.5476 C107.9837,14.7076 107.8347,14.8656 107.6847,15.0206 C107.5857,15.1206 107.4807,15.2156 107.3767,15.3106 M106.1277,17.1186 C106.1527,16.9776 106.3167,16.7636 106.4107,16.7516 C106.4187,16.8476 106.2417,17.0766 106.1277,17.1186 M104.2477,17.3626 C104.3037,17.2706 104.3797,17.1886 104.4587,17.1156 C104.4757,17.0996 104.5477,17.1306 104.5807,17.1566 C104.5947,17.1676 104.5817,17.2316 104.5637,17.2576 C104.4977,17.3496 104.4237,17.4366 104.3527,17.5256 C104.3327,17.5216 104.3147,17.5166 104.2947,17.5116 C104.2767,17.4616 104.2307,17.3916 104.2477,17.3626 M104.7287,13.0656 C104.6407,13.1426 104.5007,13.1596 104.3857,13.2076 C104.3167,13.2366 104.2527,13.2756 104.1847,13.3046 C104.1657,13.3126 104.1407,13.3046 104.0767,13.3016 C104.1347,13.2356 104.1627,13.1746 104.2097,13.1546 C104.5917,12.9876 104.9777,12.8286 105.3617,12.6696 C105.3867,12.6596 105.4167,12.6676 105.4617,12.6666 C105.4367,12.7976 105.3697,12.8456 105.2587,12.8676 C105.0727,12.9046 104.8867,12.9286 104.7287,13.0656 M107.2687,12.1606 C107.2517,12.1646 107.2057,12.1186 107.2067,12.0966 C107.2087,11.9956 107.2677,11.9606 107.3667,11.9776 C107.3957,12.0786 107.3637,12.1416 107.2687,12.1606 M107.6527,12.0116 C107.5997,12.0446 107.5457,12.0756 107.4917,12.1076 C107.4727,12.0886 107.4537,12.0686 107.4357,12.0496 C107.4667,12.0066 107.4987,11.9626 107.5307,11.9196 C107.5717,11.9506 107.6117,11.9816 107.6527,12.0116 M107.2987,11.6286 C107.4127,11.6096 107.5317,11.5956 107.6377,11.5536 C107.8687,11.4616 107.9187,11.4556 108.1907,11.5916 C108.0937,11.6136 108.0257,11.6346 107.9547,11.6426 C107.8007,11.6606 107.6457,11.6706 107.4907,11.6866 C107.4647,11.6886 107.4327,11.6976 107.4157,11.7146 C107.2887,11.8506 107.1317,11.7926 106.9767,11.7806 C107.0547,11.6606 107.1777,11.6486 107.2987,11.6286 M108.4107,12.3386 C108.4237,12.5076 108.3607,12.5616 108.2107,12.5656 C108.2007,12.5526 108.1917,12.5406 108.1827,12.5276 C108.2517,12.4706 108.3197,12.4136 108.4107,12.3386 M112.9647,12.3866 C112.9767,12.2936 112.9907,12.1986 112.9837,12.1066 C112.9717,11.9486 112.9297,11.7916 112.9267,11.6346 C112.9227,11.4576 112.8357,11.3726 112.6787,11.3286 C112.5367,11.2886 112.4457,11.1936 112.3907,11.0576 C112.3297,10.9116 112.1917,10.8596 112.0557,10.8246 C111.9997,10.8096 111.9307,10.8476 111.8667,10.8626 C111.8407,10.8676 111.8147,10.8746 111.7797,10.8826 C111.7617,10.8256 111.7447,10.7736 111.7347,10.7416 C111.6717,10.7696 111.6097,10.7976 111.5487,10.8246 C111.5287,10.7506 111.5097,10.6766 111.4837,10.5786 C111.2607,10.5716 110.9977,10.5626 110.7647,10.5546 C110.7167,10.6126 110.6857,10.6496 110.6537,10.6866 C110.6297,10.6516 110.6047,10.6166 110.5677,10.5676 C110.5157,10.5896 110.4527,10.6146 110.3897,10.6406 C110.3797,10.6556 110.3707,10.6686 110.3607,10.6826 C110.4087,10.7126 110.4597,10.7386 110.5027,10.7736 C110.5317,10.7966 110.5517,10.8326 110.5747,10.8626 C110.5417,10.8836 110.5107,10.9136 110.4737,10.9246 C110.3447,10.9646 110.2147,11.0086 110.0827,11.0306 C109.8847,11.0646 109.6837,11.0856 109.4837,11.1036 C109.4527,11.1066 109.4197,11.0666 109.3857,11.0536 C109.3487,11.0396 109.3067,11.0236 109.2697,11.0276 C109.1337,11.0436 108.9987,11.0716 108.8627,11.0866 C108.7027,11.1046 108.5417,11.1156 108.3757,11.1296 C108.3727,11.1646 108.3697,11.2136 108.3647,11.2896 C108.2937,11.2686 108.2357,11.2536 108.1807,11.2346 C108.1487,11.2236 108.1127,11.1876 108.0867,11.1936 C107.8967,11.2396 107.7067,11.2886 107.5207,11.3456 C107.3587,11.3946 107.1997,11.4536 107.0497,11.5056 C106.7707,11.7336 106.4147,11.8026 106.1087,11.9716 C106.2427,11.9526 106.3657,11.9016 106.4937,11.8686 C106.6197,11.8366 106.7517,11.8236 106.8807,11.8026 C106.8857,11.8166 106.8907,11.8316 106.8957,11.8456 C106.8597,11.8906 106.8247,11.9356 106.7877,11.9796 C106.6967,12.0876 106.3677,12.1476 106.2457,12.0896 C106.2077,12.0726 106.1137,12.0846 106.1097,12.0996 C106.0777,12.2286 105.9747,12.2256 105.8787,12.2496 C105.8397,12.2586 105.8027,12.2886 105.7737,12.3176 C105.6537,12.4376 105.6317,12.4326 105.5677,12.2556 C105.4907,12.2866 105.4157,12.3226 105.3377,12.3476 C105.1837,12.4006 105.0267,12.4476 104.8707,12.4976 C104.8587,12.5006 104.8457,12.5136 104.8427,12.5246 C104.8087,12.6566 104.7207,12.6876 104.5947,12.6686 C104.5597,12.6636 104.5187,12.6966 104.4817,12.7136 C104.4167,12.7416 104.3547,12.7726 104.2897,12.8006 C104.1537,12.8616 103.9887,12.8926 103.8897,12.9906 C103.7457,13.1306 103.5667,13.1526 103.4087,13.1526 C103.2717,13.1526 103.1397,13.1526 103.0157,13.2016 C102.9567,13.2246 102.9147,13.2926 102.8667,13.3426 C102.8247,13.3866 102.7907,13.4666 102.7437,13.4746 C102.6237,13.4946 102.4997,13.5636 102.3757,13.4786 C102.3547,13.4636 102.3107,13.4696 102.2807,13.4786 C101.8477,13.6166 101.4157,13.7566 100.9837,13.8976 C100.9657,13.9036 100.9487,13.9156 100.9367,13.9286 C100.7807,14.0936 100.5697,14.1406 100.3677,14.2176 C100.2027,14.2796 100.0417,14.3846 99.9157,14.5086 C99.6497,14.7736 99.4067,15.0626 99.1557,15.3436 C98.9337,15.5916 98.7087,15.8396 98.4927,16.0936 C98.3587,16.2506 98.3687,16.2836 98.5427,16.3916 C98.5787,16.4136 98.6167,16.4316 98.6557,16.4476 C98.7417,16.4816 98.7497,16.5346 98.6917,16.5986 C98.6497,16.6426 98.5987,16.6776 98.5557,16.7206 C98.4907,16.7846 98.4297,16.8516 98.3567,16.9296 C98.4107,16.9466 98.4327,16.9546 98.4557,16.9606 C98.6207,16.9986 98.6157,16.9966 98.5607,17.1526 C98.5367,17.2186 98.5387,17.2936 98.5257,17.3936 C98.7317,17.3786 98.9087,17.3756 99.0827,17.3496 C99.2627,17.3236 99.4387,17.2746 99.6147,17.2356 C99.7077,17.2146 99.8057,17.1816 99.8077,17.2956 C100.0327,17.2596 100.2547,17.2146 100.4797,17.1906 C100.7257,17.1646 100.9727,17.1606 101.2197,17.1426 C101.2487,17.1406 101.2757,17.1136 101.3057,17.1006 C101.3447,17.0846 101.3827,17.0646 101.4227,17.0576 C101.6627,17.0206 101.9017,16.9816 102.1437,16.9516 C102.5037,16.9076 102.7777,16.6876 103.0777,16.5156 C103.2687,16.4066 103.3957,16.1836 103.6527,16.1906 C103.6787,16.1916 103.7067,16.1566 103.7327,16.1356 C103.9497,15.9586 104.1667,15.7816 104.3907,15.5996 C104.3357,15.4256 104.3357,15.4256 104.5297,15.3326 C104.6787,15.2626 104.8257,15.1906 104.9767,15.1226 C105.0047,15.1096 105.0427,15.1156 105.0757,15.1136 C105.0847,15.1256 105.0937,15.1366 105.1017,15.1486 C105.0347,15.2356 104.9757,15.3286 104.9007,15.4086 C104.7617,15.5596 104.6137,15.7016 104.4717,15.8486 C104.2877,16.0356 104.1817,16.2846 103.9667,16.4516 C103.8617,16.5336 103.8077,16.6776 103.7177,16.7826 C103.5977,16.9236 103.4917,17.0666 103.4557,17.2536 C103.4487,17.2916 103.4027,17.3506 103.3757,17.3506 C103.2407,17.3476 103.2077,17.4466 103.1587,17.5376 C103.1247,17.6016 103.0997,17.6856 103.0437,17.7196 C102.8607,17.8306 102.7997,17.9926 102.7887,18.1936 C102.7857,18.2376 102.7407,18.2796 102.7157,18.3226 C102.6837,18.3016 102.6507,18.2816 102.6077,18.2536 C102.5307,18.3966 102.4437,18.5346 102.3817,18.6826 C102.3497,18.7586 102.3617,18.8536 102.3507,18.9396 C102.3437,18.9906 102.3377,19.0466 102.3147,19.0906 C102.2337,19.2396 102.1277,19.3676 102.1357,19.5656 C102.1417,19.6826 102.1757,19.8716 101.9737,19.9276 C101.9577,19.9316 101.9457,20.0316 101.9657,20.0686 C102.0087,20.1466 102.0727,20.2126 102.1287,20.2826 L102.2077,20.3076 C102.1707,20.3206 102.1307,20.3276 102.0967,20.3446 C102.0027,20.3936 101.9997,20.4796 102.0227,20.5646 C102.0547,20.6836 102.1007,20.8006 102.1347,20.9196 C102.1447,20.9526 102.1497,21.0036 102.1307,21.0266 C101.9657,21.2316 102.0717,21.3976 102.1937,21.5746 C102.2267,21.3736 102.2577,21.1846 102.2867,20.9956 C102.3157,20.8146 102.3897,20.7506 102.5457,20.7906 C102.5617,20.7056 102.5767,20.6226 102.5927,20.5406 L102.5517,20.5666 C102.4987,20.5336 102.4037,20.5016 102.4017,20.4656 C102.3987,20.3966 102.4397,20.3186 102.4797,20.2556 C102.4927,20.2356 102.5887,20.2346 102.6017,20.2536 C102.6537,20.3346 102.7147,20.3166 102.7837,20.2946 C102.8707,20.2666 102.8897,20.3066 102.9047,20.3916 C102.9297,20.5166 102.9837,20.6356 103.0257,20.7576 C103.1097,20.7266 103.1867,20.6696 103.2467,20.6836 C103.3667,20.7116 103.4337,20.6816 103.4787,20.5736 C103.4857,20.5536 103.5037,20.5286 103.5237,20.5216 C103.6977,20.4546 103.7587,20.3066 103.8017,20.1436 C103.8167,20.0806 103.8337,20.0156 103.8597,19.9566 C103.8937,19.8816 103.9377,19.8106 103.9707,19.7466 C104.0537,19.8326 104.1187,19.8936 104.1767,19.9626 C104.1977,19.9886 104.2147,20.0316 104.2107,20.0646 C104.1997,20.1516 104.1807,20.2396 104.1577,20.3246 C104.1077,20.5156 104.0377,20.7026 104.0047,20.8956 C103.9877,20.9936 104.0327,21.1026 104.0497,21.2066 C104.1227,21.1926 104.1967,21.1786 104.2707,21.1656 C104.2757,21.1646 104.2797,21.1636 104.2837,21.1636 C104.4387,21.1586 104.5057,21.0516 104.5527,20.9286 C104.6257,20.7376 104.6427,20.5176 104.8397,20.3906 C104.8737,20.3686 104.8907,20.3126 104.9067,20.2696 C104.9407,20.1776 104.9557,20.0746 105.0017,19.9896 C105.1917,19.6396 105.3857,19.2926 105.5877,18.9496 C105.6677,18.8146 105.7787,18.6986 105.8667,18.5686 C106.0337,18.3206 106.1867,18.0626 106.3597,17.8206 C106.5197,17.5986 106.6917,17.3866 106.8677,17.1786 C107.0637,16.9476 107.2687,16.7246 107.4727,16.4996 C107.5277,16.4386 107.6217,16.3976 107.6487,16.3276 C107.7607,16.0316 107.9817,15.8246 108.1967,15.6116 C108.2027,15.6056 108.2027,15.5946 108.2057,15.5846 C108.1657,15.5816 108.1277,15.5796 108.0487,15.5736 C108.2667,15.4286 108.4537,15.3036 108.6407,15.1776 C108.6217,15.1686 108.6037,15.1576 108.5847,15.1476 C108.5717,15.0886 108.5597,15.0296 108.5467,14.9696 C108.6017,14.9456 108.6637,14.9316 108.7057,14.8946 C108.8057,14.8036 108.8877,14.6916 108.9907,14.6066 C109.1817,14.4506 109.3787,14.3036 109.5797,14.1616 C109.7607,14.0336 109.8907,13.8246 110.1417,13.8046 C110.1677,13.8026 110.1917,13.7636 110.2157,13.7416 C110.4087,13.5616 110.6417,13.4496 110.8927,13.3866 C111.1457,13.3236 111.4057,13.2906 111.6637,13.2456 C111.6727,13.2436 111.6827,13.2496 111.6957,13.2526 C111.7037,13.2846 111.7127,13.3196 111.7207,13.3516 C111.9387,13.3286 112.1487,13.3106 112.3567,13.2826 C112.4757,13.2666 112.5787,13.1266 112.5337,13.0446 C112.4577,12.9086 112.5217,12.8536 112.6377,12.7976 C112.8107,12.7156 112.9377,12.5876 112.9647,12.3866" id="Fill-20" fill="#FEFEFE"></path>
                <path d="M99.7039,8.8421 C99.7399,8.8701 99.7939,8.8891 99.8099,8.9261 C99.8679,9.0531 99.8899,9.1851 99.8069,9.3121 C99.7969,9.3261 99.7819,9.3381 99.7669,9.3481 C99.7619,9.3521 99.7499,9.3471 99.7219,9.3461 C99.6829,9.2281 99.6339,9.1161 99.6169,8.9991 C99.6089,8.9521 99.6729,8.8951 99.7039,8.8421 M101.0069,8.8421 C101.0429,8.8701 101.0969,8.8891 101.1129,8.9261 C101.1709,9.0531 101.1919,9.1851 101.1089,9.3121 C101.0999,9.3261 101.0849,9.3381 101.0699,9.3481 C101.0639,9.3521 101.0529,9.3471 101.0239,9.3461 C100.9859,9.2281 100.9359,9.1161 100.9199,8.9991 C100.9119,8.9521 100.9749,8.8951 101.0069,8.8421 M99.4329,8.2461 C99.5469,8.3511 99.5619,8.4541 99.5449,8.5901 C99.5229,8.7521 99.5529,8.9221 99.5729,9.0871 C99.6009,9.3191 99.6289,9.5521 99.6789,9.7801 C99.7289,10.0161 99.6249,10.2971 99.8709,10.4831 C99.8989,10.5041 99.9059,10.5591 99.9139,10.6001 C99.9319,10.6971 99.9369,10.7971 99.9589,10.8931 C99.9899,11.0341 99.9819,11.1601 99.9269,11.3021 C99.8789,11.4241 99.8579,11.5851 99.9729,11.7021 C100.0499,11.7811 100.1449,11.8421 100.2309,11.9141 C100.3109,11.9811 100.3849,12.0611 100.5069,11.9921 C100.5239,11.9821 100.5819,12.0041 100.5919,12.0251 C100.6509,12.1551 100.7529,12.2051 100.8889,12.2141 C100.9159,12.2161 100.9409,12.2511 100.9689,12.2691 C100.9859,12.2801 101.0109,12.2981 101.0259,12.2931 C101.1429,12.2541 101.2469,12.2531 101.3749,12.2941 C101.5469,12.3491 101.7279,12.2861 101.8969,12.2061 C101.9639,12.1741 102.0629,12.1511 102.1229,12.1781 C102.2609,12.2421 102.3769,12.2001 102.4939,12.1491 C102.6049,12.0991 102.7049,12.0251 102.8169,11.9791 C103.0559,11.8821 103.3049,11.8071 103.5399,11.7021 C103.6879,11.6351 103.8199,11.5311 103.9559,11.4401 C104.0379,11.3841 104.1719,11.3661 104.1359,11.2131 C104.1329,11.2011 104.1619,11.1751 104.1819,11.1651 C104.3949,11.0511 104.6059,10.9271 104.8269,10.8291 C105.1209,10.6991 105.4459,10.6641 105.7369,10.5111 C105.9579,10.3951 106.2119,10.3431 106.4509,10.2651 C106.6829,10.1891 106.9169,10.1181 107.1479,10.0421 C107.3089,9.9891 107.4649,9.9201 107.6269,9.8761 C107.8479,9.8181 108.0729,9.7791 108.2949,9.7291 C108.4539,9.6931 108.5529,9.5811 108.6259,9.4461 C108.7529,9.2141 108.8769,8.9791 108.6359,8.7401 C108.6299,8.7341 108.6249,8.7211 108.6269,8.7141 C108.6649,8.5741 108.5579,8.5571 108.4819,8.5371 C108.3869,8.1801 108.5389,7.7971 108.2899,7.4831 C108.2829,7.4731 108.2909,7.4541 108.2849,7.4421 C108.2649,7.3911 108.2539,7.3101 108.2169,7.2951 C108.0199,7.2161 107.8209,7.1321 107.6149,7.0921 C107.4569,7.0621 107.2869,7.1001 107.1219,7.1001 C106.9889,7.1001 106.8559,7.0881 106.7209,7.0811 C106.7249,7.1031 106.7309,7.1411 106.7439,7.2171 C106.6549,7.1891 106.5899,7.1671 106.5219,7.1481 C106.4889,7.1381 106.4499,7.1231 106.4199,7.1331 C106.2379,7.1881 106.0289,7.1591 105.8799,7.3131 C105.8629,7.3291 105.8259,7.3281 105.7979,7.3291 C105.4429,7.3501 105.1249,7.4921 104.8009,7.6211 C104.5439,7.7231 104.2869,7.8241 104.0239,7.9111 C103.9049,7.9501 103.7719,7.9421 103.6489,7.9701 C103.3939,8.0291 103.1449,8.0611 102.9379,7.8561 C102.8919,7.8101 102.8399,7.7351 102.8429,7.6761 C102.8549,7.4611 102.8919,7.2471 102.9169,7.0321 C102.9419,6.8161 102.9839,6.6001 102.8999,6.3841 C102.8799,6.3321 102.9009,6.2661 102.8969,6.2061 C102.8919,6.1111 102.8829,6.0161 102.8749,5.9211 C102.8699,5.8571 102.8669,5.7921 102.8589,5.7281 C102.8479,5.6241 102.8389,5.5201 102.8179,5.4181 C102.8009,5.3281 102.7509,5.2411 102.7489,5.1531 C102.7439,4.9691 102.7639,4.7851 102.7689,4.6011 C102.7809,4.2811 102.7249,3.9741 102.6079,3.6751 C102.5259,3.4641 102.4479,3.2551 102.4499,3.0131 C102.4509,2.8321 102.3629,2.6431 102.2839,2.4711 C102.1939,2.2781 102.0749,2.0981 101.9589,1.9191 C101.9179,1.8571 101.8529,1.7931 101.7859,1.7701 C101.5939,1.7051 101.3969,1.6451 101.1969,1.6151 C101.0829,1.5971 100.9369,1.6071 100.8469,1.6661 C100.7289,1.7411 100.6439,1.8731 100.5609,1.9921 C100.4739,2.1191 100.4479,2.2891 100.2839,2.3631 C100.2559,2.3751 100.2479,2.4361 100.2319,2.4751 C100.1859,2.5861 100.1409,2.6971 100.0949,2.8081 C100.0619,2.8851 100.0239,2.9591 99.9969,3.0381 C99.9529,3.1681 99.9239,3.3031 99.8709,3.4301 C99.8199,3.5531 99.7459,3.6671 99.6859,3.7871 C99.6739,3.8131 99.6689,3.8531 99.6779,3.8801 C99.7679,4.1451 99.6809,4.4081 99.6619,4.6691 C99.6369,5.0171 99.5459,5.3611 99.5089,5.7091 C99.4769,5.9971 99.4829,6.2881 99.4729,6.5781 C99.4659,6.7421 99.4559,6.9061 99.4539,7.0711 C99.4489,7.3611 99.4479,7.6511 99.4459,7.9411 C99.4459,8.0051 99.4299,8.0711 99.5349,8.0811 C99.6339,8.0911 99.6259,8.1671 99.6019,8.2431 C99.5509,8.2441 99.5039,8.2451 99.4329,8.2461" id="Fill-22" fill="#FEFEFE"></path>
                <path d="M109.368,22.9281 C109.347,22.8991 109.312,22.8701 109.309,22.8401 C109.307,22.8151 109.345,22.7871 109.364,22.7611 C109.392,22.7821 109.42,22.8041 109.467,22.8411 C109.422,22.8811 109.394,22.9041 109.368,22.9281 M109.397,21.3411 C109.41,21.3451 109.424,21.3501 109.437,21.3541 C109.438,21.4001 109.449,21.4491 109.437,21.4911 C109.426,21.5321 109.39,21.5661 109.366,21.6031 C109.354,21.5581 109.33,21.5111 109.335,21.4691 C109.341,21.4241 109.375,21.3831 109.397,21.3411 M108.802,23.4191 C108.779,23.3761 108.748,23.3361 108.739,23.2911 C108.734,23.2681 108.77,23.2371 108.789,23.2091 C108.817,23.2421 108.846,23.2761 108.884,23.3201 C108.847,23.3641 108.824,23.3911 108.802,23.4191 M108.51,23.3991 C108.503,23.4081 108.449,23.3981 108.436,23.3811 C108.421,23.3601 108.409,23.3051 108.421,23.2961 C108.533,23.2051 108.454,23.1371 108.41,23.0531 C108.385,23.0051 108.411,22.9311 108.414,22.8691 C108.467,22.8741 108.529,22.8651 108.568,22.8901 C108.596,22.9081 108.591,22.9741 108.601,23.0191 C108.616,23.0731 108.632,23.1271 108.652,23.2021 C108.611,23.2601 108.564,23.3321 108.51,23.3991 M108.065,22.9281 C108.045,22.8991 108.01,22.8701 108.007,22.8401 C108.005,22.8151 108.042,22.7871 108.061,22.7611 C108.09,22.7821 108.117,22.8041 108.164,22.8411 C108.119,22.8811 108.093,22.9041 108.065,22.9281 M108.095,21.3411 C108.107,21.3451 108.121,21.3501 108.135,21.3541 C108.136,21.4001 108.146,21.4491 108.135,21.4911 C108.123,21.5321 108.088,21.5661 108.063,21.6031 C108.052,21.5581 108.027,21.5111 108.032,21.4691 C108.038,21.4241 108.072,21.3831 108.095,21.3411 M111.099,16.8431 C111.028,16.8641 110.97,16.8741 110.966,16.8641 C110.908,16.7081 110.848,16.5531 110.807,16.3921 C110.761,16.2091 110.81,16.0091 110.699,15.8361 C110.625,15.7201 110.565,15.5941 110.495,15.4751 C110.461,15.4171 110.332,15.4211 110.282,15.4781 C110.255,15.5101 110.231,15.5461 110.203,15.5771 C110.126,15.6651 110.027,15.7421 109.972,15.8431 C109.841,16.0871 109.79,16.3691 109.589,16.5851 C109.413,16.7731 109.267,16.9901 109.106,17.1911 C109.042,17.2711 108.968,17.3431 108.9,17.4201 C108.826,17.5031 108.764,17.5981 108.681,17.6701 C108.278,18.0181 108.071,18.4411 108.148,18.9831 C108.151,19.0081 108.145,19.0471 108.129,19.0601 C108.012,19.1531 108.022,19.2651 108.056,19.3921 C108.091,19.5181 108.047,19.5611 107.922,19.5741 C107.894,19.5771 107.848,19.6151 107.848,19.6361 C107.848,19.7861 107.743,19.9371 107.848,20.0891 C107.868,20.1171 107.868,20.1621 107.868,20.1991 C107.869,20.3291 107.868,20.4601 107.864,20.5901 C107.862,20.6361 107.849,20.6801 107.844,20.7261 C107.824,20.8661 107.666,20.9801 107.82,21.1541 C107.957,21.3081 107.892,21.4121 107.681,21.4291 C107.599,21.4351 107.56,21.4671 107.58,21.5411 C107.62,21.6921 107.673,21.8391 107.715,21.9891 C107.735,22.0611 107.778,22.1711 107.746,22.2061 C107.639,22.3261 107.713,22.4181 107.766,22.5271 C107.619,22.5421 107.613,22.6521 107.638,22.7461 C107.646,22.7831 107.743,22.7991 107.814,22.8311 C107.882,22.9661 107.744,23.0551 107.679,23.1641 C107.723,23.1941 107.758,23.2181 107.79,23.2401 C107.751,23.4291 107.893,23.8191 107.989,23.8341 C108.094,23.6641 107.889,23.4521 108.075,23.2751 C108.167,23.4701 108.251,23.6481 108.334,23.8251 C108.347,23.8221 108.362,23.8181 108.376,23.8151 C108.376,23.6501 108.483,23.6511 108.592,23.6731 C108.566,23.6091 108.544,23.5541 108.521,23.4991 C108.568,23.4801 108.616,23.4621 108.643,23.4511 C108.697,23.5581 108.738,23.6401 108.782,23.7271 C108.936,23.6041 108.968,23.6151 109.003,23.7771 C109.041,23.9501 109.077,24.1241 109.116,24.3081 C109.191,24.2771 109.238,24.2581 109.308,24.2291 C109.27,24.1181 109.259,23.9891 109.189,23.9071 C109.09,23.7891 109.047,23.6741 109.092,23.5321 C109.139,23.3801 109.197,23.2331 109.265,23.0421 C109.597,23.7101 109.566,24.4371 109.843,25.0961 C109.837,24.5101 109.607,23.9621 109.655,23.3821 C109.704,23.4281 109.738,23.4781 109.752,23.5321 C109.812,23.7741 109.866,24.0171 109.923,24.2601 C109.933,24.2581 109.944,24.2571 109.955,24.2551 C109.95,24.2011 109.95,24.1471 109.941,24.0941 C109.879,23.6701 109.739,23.2581 109.766,22.8201 C109.782,22.5861 109.773,22.3511 109.79,22.1171 C109.805,21.9071 109.836,21.6981 109.867,21.4901 C109.881,21.3941 109.903,21.2971 109.939,21.2081 C109.975,21.1181 110.049,21.0411 110.076,20.9501 C110.12,20.7981 110.141,20.6381 110.171,20.4821 C110.201,20.3231 110.217,20.1581 110.265,20.0041 C110.297,19.9031 110.358,19.7941 110.44,19.7301 C110.551,19.6431 110.6,19.5391 110.65,19.4151 C110.754,19.1621 110.885,18.9211 111.152,18.7951 C111.244,18.7521 111.266,18.6341 111.209,18.5971 C111.088,18.5201 111.152,18.4541 111.179,18.3751 C111.196,18.3221 111.202,18.2651 111.221,18.2131 C111.288,18.0251 111.154,17.8061 111.313,17.6321 C111.324,17.6201 111.316,17.5851 111.31,17.5631 C111.241,17.3231 111.17,17.0831 111.099,16.8431" id="Fill-24" fill="#FEFEFE"></path>
                <path d="M4.2064,18.0164 L3.3164,18.0164 L2.1744,19.4194 C2.1454,19.4574 2.1154,19.4964 2.0844,19.5374 L2.0844,18.0164 L1.3834,18.0164 L1.3834,21.8664 L2.0844,21.8664 L2.0844,20.4144 L2.2984,20.1674 L3.4384,21.8664 L4.2744,21.8664 L2.7904,19.6764 L4.2064,18.0164 Z" id="Fill-26" fill="#FEFEFE"></path>
                <path d="M5.4417,21.4544 C4.9807,21.4544 4.6537,21.0254 4.6537,20.4564 C4.6537,19.9634 4.8947,19.4484 5.4527,19.4484 C6.0107,19.4484 6.2307,20.0064 6.2307,20.4464 C6.2307,21.0304 5.8927,21.4544 5.4417,21.4544 M5.4627,19.0944 C4.7447,19.0944 4.1767,19.6044 4.1767,20.4724 C4.1767,21.2934 4.7177,21.8084 5.4207,21.8084 C6.0477,21.8084 6.7127,21.3894 6.7127,20.4304 C6.7127,19.6364 6.2087,19.0944 5.4627,19.0944" id="Fill-28" fill="#FEFEFE"></path>
                <path d="M7.7103,19.6634 L7.6893,19.6634 L7.6723,19.1534 L7.2593,19.1534 C7.2753,19.3944 7.2813,19.6574 7.2813,19.9634 L7.2813,21.7484 L7.7473,21.7484 L7.7473,20.3654 C7.7473,20.2854 7.7583,20.2094 7.7693,20.1454 C7.8333,19.7914 8.0693,19.5394 8.4013,19.5394 C8.4663,19.5394 8.5143,19.5444 8.5623,19.5564 L8.5623,19.1104 C8.5203,19.1004 8.4823,19.0944 8.4283,19.0944 C8.1123,19.0944 7.8283,19.3144 7.7103,19.6634" id="Fill-30" fill="#FEFEFE"></path>
                <path d="M9.2225,20.1995 C9.2605,19.8725 9.4695,19.4325 9.9465,19.4325 C10.4775,19.4325 10.6055,19.8985 10.6005,20.1995 L9.2225,20.1995 Z M9.9835,19.0945 C9.2275,19.0945 8.7665,19.7115 8.7665,20.4935 C8.7665,21.2775 9.2435,21.8025 10.0425,21.8025 C10.4555,21.8025 10.7405,21.7165 10.9065,21.6415 L10.8255,21.3035 C10.6485,21.3795 10.4455,21.4385 10.1075,21.4385 C9.6355,21.4385 9.2275,21.1755 9.2175,20.5365 L11.0405,20.5365 C11.0455,20.4885 11.0565,20.4135 11.0565,20.3175 C11.0565,19.8405 10.8305,19.0945 9.9835,19.0945 Z" id="Fill-32" fill="#FEFEFE"></path>
                <path d="M12.9813,20.8748 C12.9813,20.9228 12.9703,20.9768 12.9543,21.0248 C12.8793,21.2448 12.6653,21.4588 12.3273,21.4588 C12.0853,21.4588 11.8813,21.3148 11.8813,21.0088 C11.8813,20.5048 12.4663,20.4138 12.9813,20.4248 L12.9813,20.8748 Z M13.4373,20.1558 C13.4373,19.6358 13.2443,19.0948 12.4503,19.0948 C12.1233,19.0948 11.8123,19.1858 11.5973,19.3248 L11.7053,19.6358 C11.8873,19.5188 12.1393,19.4428 12.3803,19.4428 C12.9113,19.4428 12.9703,19.8288 12.9703,20.0438 L12.9703,20.0968 C11.9673,20.0918 11.4103,20.4358 11.4103,21.0628 C11.4103,21.4378 11.6783,21.8078 12.2033,21.8078 C12.5733,21.8078 12.8523,21.6258 12.9973,21.4218 L13.0133,21.4218 L13.0513,21.7488 L13.4803,21.7488 C13.4473,21.5718 13.4373,21.3518 13.4373,21.1268 L13.4373,20.1558 Z" id="Fill-34" fill="#FEFEFE"></path>
                <path d="M17.8026,18.5853 C18.0566,18.5853 18.2976,18.6343 18.4806,18.7233 L18.6056,18.7843 L18.7846,18.1773 L18.6986,18.1323 C18.6206,18.0913 18.3236,17.9583 17.7866,17.9583 C16.6056,17.9583 15.7816,18.7873 15.7816,19.9743 C15.7816,21.1563 16.5286,21.9203 17.6846,21.9203 C18.1556,21.9203 18.5136,21.8253 18.6916,21.7363 L18.7766,21.6933 L18.6196,21.0923 L18.4906,21.1543 C18.3156,21.2403 18.0436,21.2933 17.7816,21.2933 C16.9856,21.2933 16.5096,20.7943 16.5096,19.9583 C16.5096,19.0983 16.9926,18.5853 17.8026,18.5853" id="Fill-36" fill="#FEFEFE"></path>
                <path d="M19.3895,20.1995 C19.4275,19.8725 19.6365,19.4325 20.1135,19.4325 C20.6445,19.4325 20.7735,19.8985 20.7675,20.1995 L19.3895,20.1995 Z M20.1515,19.0945 C19.3955,19.0945 18.9335,19.7115 18.9335,20.4935 C18.9335,21.2775 19.4105,21.8025 20.2105,21.8025 C20.6235,21.8025 20.9075,21.7165 21.0735,21.6415 L20.9935,21.3035 C20.8165,21.3795 20.6125,21.4385 20.2745,21.4385 C19.8025,21.4385 19.3955,21.1755 19.3845,20.5365 L21.2075,20.5365 C21.2125,20.4885 21.2235,20.4135 21.2235,20.3175 C21.2235,19.8405 20.9985,19.0945 20.1515,19.0945 Z" id="Fill-38" fill="#FEFEFE"></path>
                <path d="M23.0735,19.0946 C22.6445,19.0946 22.3445,19.3356 22.2155,19.5826 L22.2045,19.5826 L22.1775,19.1536 L21.7605,19.1536 C21.7765,19.3676 21.7815,19.5886 21.7815,19.8566 L21.7815,21.7486 L22.2535,21.7486 L22.2535,20.1886 C22.2535,20.1086 22.2635,20.0276 22.2855,19.9686 C22.3655,19.7056 22.6075,19.4856 22.9185,19.4856 C23.3635,19.4856 23.5185,19.8346 23.5185,20.2536 L23.5185,21.7486 L23.9905,21.7486 L23.9905,20.1996 C23.9905,19.3086 23.4325,19.0946 23.0735,19.0946" id="Fill-40" fill="#FEFEFE"></path>
                <path d="M25.2776,18.4085 L24.8166,18.5315 L24.8166,19.1535 L24.4146,19.1535 L24.4146,19.5125 L24.8166,19.5125 L24.8166,20.9285 C24.8166,21.2345 24.8646,21.4645 24.9986,21.6035 C25.1106,21.7325 25.2886,21.8025 25.5076,21.8025 C25.6906,21.8025 25.8356,21.7755 25.9266,21.7385 L25.9046,21.3845 C25.8456,21.4005 25.7546,21.4165 25.6316,21.4165 C25.3686,21.4165 25.2776,21.2345 25.2776,20.9125 L25.2776,19.5125 L25.9536,19.5125 L25.9536,19.1535 L25.2776,19.1535 L25.2776,18.4085 Z" id="Fill-42" fill="#FEFEFE"></path>
                <path d="M26.6932,20.1995 C26.7312,19.8725 26.9402,19.4325 27.4172,19.4325 C27.9482,19.4325 28.0762,19.8985 28.0712,20.1995 L26.6932,20.1995 Z M27.4552,19.0945 C26.6982,19.0945 26.2372,19.7115 26.2372,20.4935 C26.2372,21.2775 26.7142,21.8025 27.5132,21.8025 C27.9262,21.8025 28.2112,21.7165 28.3772,21.6415 L28.2972,21.3035 C28.1202,21.3795 27.9162,21.4385 27.5782,21.4385 C27.1062,21.4385 26.6982,21.1755 26.6882,20.5365 L28.5112,20.5365 C28.5162,20.4885 28.5272,20.4135 28.5272,20.3175 C28.5272,19.8405 28.3022,19.0945 27.4552,19.0945 Z" id="Fill-44" fill="#FEFEFE"></path>
                <path d="M29.5135,19.6634 L29.4925,19.6634 L29.4755,19.1534 L29.0635,19.1534 C29.0795,19.3944 29.0845,19.6574 29.0845,19.9634 L29.0845,21.7484 L29.5515,21.7484 L29.5515,20.3654 C29.5515,20.2854 29.5615,20.2094 29.5725,20.1454 C29.6375,19.7914 29.8725,19.5394 30.2055,19.5394 C30.2695,19.5394 30.3175,19.5444 30.3665,19.5564 L30.3665,19.1104 C30.3235,19.1004 30.2855,19.0944 30.2325,19.0944 C29.9155,19.0944 29.6315,19.3144 29.5135,19.6634" id="Fill-46" fill="#FEFEFE"></path>
                <path d="M32.4363,19.0145 C32.4363,18.6175 32.5383,18.2635 32.9403,18.2635 C33.0743,18.2635 33.1703,18.2905 33.2403,18.3225 L33.3053,17.9575 C33.2133,17.9205 33.0693,17.8825 32.9023,17.8825 C32.6833,17.8825 32.4473,17.9525 32.2703,18.1235 C32.0503,18.3335 31.9693,18.6655 31.9693,19.0305 L31.9693,19.1535 L31.6053,19.1535 L31.6053,19.5135 L31.9693,19.5135 L31.9693,21.7485 L32.4363,21.7485 L32.4363,19.5135 L33.0633,19.5135 L33.0633,19.1535 L32.4363,19.1535 L32.4363,19.0145 Z" id="Fill-48" fill="#FEFEFE"></path>
                <path d="M34.4686,21.4544 C34.0076,21.4544 33.6806,21.0254 33.6806,20.4564 C33.6806,19.9634 33.9216,19.4484 34.4796,19.4484 C35.0366,19.4484 35.2566,20.0064 35.2566,20.4464 C35.2566,21.0304 34.9196,21.4544 34.4686,21.4544 M34.4896,19.0944 C33.7716,19.0944 33.2036,19.6044 33.2036,20.4724 C33.2036,21.2934 33.7446,21.8084 34.4476,21.8084 C35.0746,21.8084 35.7396,21.3894 35.7396,20.4304 C35.7396,19.6364 35.2356,19.0944 34.4896,19.0944" id="Fill-50" fill="#FEFEFE"></path>
                <path d="M36.7366,19.6634 L36.7156,19.6634 L36.6986,19.1534 L36.2856,19.1534 C36.3016,19.3944 36.3076,19.6574 36.3076,19.9634 L36.3076,21.7484 L36.7746,21.7484 L36.7746,20.3654 C36.7746,20.2854 36.7846,20.2094 36.7956,20.1454 C36.8606,19.7914 37.0956,19.5394 37.4276,19.5394 C37.4926,19.5394 37.5406,19.5444 37.5896,19.5564 L37.5896,19.1104 C37.5466,19.1004 37.5086,19.0944 37.4556,19.0944 C37.1386,19.0944 36.8546,19.3144 36.7366,19.6634" id="Fill-52" fill="#FEFEFE"></path>
                <path d="M53.3401,18.1292 C53.1681,18.1292 53.0451,18.2582 53.0451,18.4242 C53.0451,18.5852 53.1631,18.7132 53.3291,18.7132 C53.5171,18.7132 53.6351,18.5852 53.6301,18.4242 C53.6301,18.2582 53.5171,18.1292 53.3401,18.1292" id="Fill-54" fill="#FEFEFE"></path>
                <path d="M61.8231,18.1292 C61.6521,18.1292 61.5281,18.2582 61.5281,18.4242 C61.5281,18.5852 61.6461,18.7132 61.8121,18.7132 C62.0001,18.7132 62.1181,18.5852 62.1131,18.4242 C62.1131,18.2582 62.0001,18.1292 61.8231,18.1292" id="Fill-56" fill="#FEFEFE"></path>
                <mask id="mask-4" fill="white">
                    <use xlink:href="#path-3"></use>
                </mask>
                <g id="Clip-59"></g>
                <polygon id="Fill-58" fill="#FEFEFE" mask="url(#mask-4)" points="39.986 21.8665 40.688 21.8665 40.688 18.0165 39.986 18.0165"></polygon>
                <path d="M42.6883,19.0946 C42.2593,19.0946 41.9593,19.3356 41.8303,19.5826 L41.8193,19.5826 L41.7923,19.1536 L41.3743,19.1536 C41.3903,19.3676 41.3963,19.5886 41.3963,19.8566 L41.3963,21.7486 L41.8683,21.7486 L41.8683,20.1886 C41.8683,20.1086 41.8783,20.0276 41.9003,19.9686 C41.9803,19.7056 42.2223,19.4856 42.5333,19.4856 C42.9783,19.4856 43.1333,19.8346 43.1333,20.2536 L43.1333,21.7486 L43.6053,21.7486 L43.6053,20.1996 C43.6053,19.3086 43.0473,19.0946 42.6883,19.0946" id="Fill-60" fill="#FEFEFE" mask="url(#mask-4)"></path>
                <path d="M45.4124,20.6121 C45.3274,20.8481 45.2514,21.0631 45.1924,21.2771 L45.1764,21.2771 C45.1224,21.0631 45.0534,20.8481 44.9674,20.6121 L44.4574,19.1541 L43.9544,19.1541 L44.9404,21.7491 L45.3914,21.7491 L46.4104,19.1541 L45.9164,19.1541 L45.4124,20.6121 Z" id="Fill-61" fill="#FEFEFE" mask="url(#mask-4)"></path>
                <path d="M47.0428,20.1995 C47.0808,19.8725 47.2898,19.4325 47.7668,19.4325 C48.2968,19.4325 48.4258,19.8985 48.4208,20.1995 L47.0428,20.1995 Z M47.8048,19.0945 C47.0478,19.0945 46.5868,19.7115 46.5868,20.4935 C46.5868,21.2775 47.0638,21.8025 47.8628,21.8025 C48.2758,21.8025 48.5608,21.7165 48.7268,21.6415 L48.6468,21.3035 C48.4688,21.3795 48.2658,21.4385 47.9278,21.4385 C47.4558,21.4385 47.0478,21.1755 47.0378,20.5365 L48.8608,20.5365 C48.8658,20.4885 48.8768,20.4135 48.8768,20.3175 C48.8768,19.8405 48.6518,19.0945 47.8048,19.0945 Z" id="Fill-62" fill="#FEFEFE" mask="url(#mask-4)"></path>
                <path d="M50.2708,20.242 C49.9338,20.114 49.7778,20.017 49.7778,19.803 C49.7778,19.61 49.9338,19.449 50.2118,19.449 C50.4538,19.449 50.6408,19.534 50.7428,19.598 L50.8608,19.255 C50.7158,19.17 50.4858,19.095 50.2228,19.095 C49.6658,19.095 49.3278,19.438 49.3278,19.856 C49.3278,20.167 49.5468,20.425 50.0138,20.591 C50.3618,20.72 50.4968,20.843 50.4968,21.068 C50.4968,21.283 50.3358,21.454 49.9928,21.454 C49.7558,21.454 49.5098,21.357 49.3698,21.266 L49.2518,21.626 C49.4348,21.733 49.6968,21.803 49.9808,21.803 C50.5988,21.803 50.9518,21.481 50.9518,21.025 C50.9518,20.639 50.7218,20.414 50.2708,20.242" id="Fill-63" fill="#FEFEFE" mask="url(#mask-4)"></path>
                <path d="M52.0989,18.4085 L51.6379,18.5315 L51.6379,19.1535 L51.2359,19.1535 L51.2359,19.5125 L51.6379,19.5125 L51.6379,20.9285 C51.6379,21.2345 51.6859,21.4645 51.8209,21.6035 C51.9329,21.7325 52.1099,21.8025 52.3299,21.8025 C52.5119,21.8025 52.6569,21.7755 52.7479,21.7385 L52.7259,21.3845 C52.6679,21.4005 52.5769,21.4165 52.4529,21.4165 C52.1899,21.4165 52.0989,21.2345 52.0989,20.9125 L52.0989,19.5125 L52.7749,19.5125 L52.7749,19.1535 L52.0989,19.1535 L52.0989,18.4085 Z" id="Fill-64" fill="#FEFEFE" mask="url(#mask-4)"></path>
                <polygon id="Fill-65" fill="#FEFEFE" mask="url(#mask-4)" points="53.279 21.7485 53.751 21.7485 53.751 19.1535 53.279 19.1535"></polygon>
                <path d="M56.2552,20.6444 C56.2552,20.7244 56.2442,20.8154 56.2172,20.8964 C56.1152,21.1964 55.8532,21.3794 55.5632,21.3794 C55.0542,21.3794 54.7972,20.9554 54.7972,20.4464 C54.7972,19.8454 55.1182,19.4644 55.5682,19.4644 C55.9122,19.4644 56.1422,19.6894 56.2282,19.9634 C56.2502,20.0274 56.2552,20.0974 56.2552,20.1784 L56.2552,20.6444 Z M56.3092,19.5444 L56.2972,19.5444 C56.1852,19.3304 55.9392,19.0944 55.4882,19.0944 C54.8932,19.0944 54.3192,19.5934 54.3192,20.4724 C54.3192,21.1914 54.7802,21.7384 55.4242,21.7384 C55.8262,21.7384 56.1052,21.5454 56.2502,21.3044 L56.2602,21.3044 L56.2602,21.5934 C56.2602,22.2474 55.9062,22.4994 55.4242,22.4994 C55.1022,22.4994 54.8342,22.4034 54.6622,22.2964 L54.5442,22.6554 C54.7532,22.7944 55.0962,22.8704 55.4082,22.8704 C55.7352,22.8704 56.0992,22.7944 56.3512,22.5584 C56.6032,22.3334 56.7222,21.9694 56.7222,21.3734 L56.7222,19.8664 C56.7222,19.5504 56.7322,19.3414 56.7432,19.1534 L56.3302,19.1534 L56.3092,19.5444 Z" id="Fill-66" fill="#FEFEFE" mask="url(#mask-4)"></path>
                <path d="M58.845,20.8748 C58.845,20.9228 58.835,20.9768 58.819,21.0248 C58.743,21.2448 58.529,21.4588 58.191,21.4588 C57.949,21.4588 57.746,21.3148 57.746,21.0088 C57.746,20.5048 58.33,20.4138 58.845,20.4248 L58.845,20.8748 Z M59.301,20.1558 C59.301,19.6358 59.108,19.0948 58.314,19.0948 C57.987,19.0948 57.676,19.1858 57.462,19.3248 L57.569,19.6358 C57.751,19.5188 58.003,19.4428 58.245,19.4428 C58.776,19.4428 58.835,19.8288 58.835,20.0438 L58.835,20.0968 C57.832,20.0918 57.274,20.4358 57.274,21.0628 C57.274,21.4378 57.542,21.8078 58.068,21.8078 C58.438,21.8078 58.717,21.6258 58.861,21.4218 L58.877,21.4218 L58.915,21.7488 L59.344,21.7488 C59.312,21.5718 59.301,21.3518 59.301,21.1268 L59.301,20.1558 Z" id="Fill-67" fill="#FEFEFE" mask="url(#mask-4)"></path>
                <path d="M60.5823,18.4085 L60.1213,18.5315 L60.1213,19.1535 L59.7193,19.1535 L59.7193,19.5125 L60.1213,19.5125 L60.1213,20.9285 C60.1213,21.2345 60.1693,21.4645 60.3043,21.6035 C60.4163,21.7325 60.5933,21.8025 60.8123,21.8025 C60.9953,21.8025 61.1403,21.7755 61.2313,21.7385 L61.2093,21.3845 C61.1513,21.4005 61.0603,21.4165 60.9363,21.4165 C60.6733,21.4165 60.5823,21.2345 60.5823,20.9125 L60.5823,19.5125 L61.2583,19.5125 L61.2583,19.1535 L60.5823,19.1535 L60.5823,18.4085 Z" id="Fill-68" fill="#FEFEFE" mask="url(#mask-4)"></path>
                <polygon id="Fill-69" fill="#FEFEFE" mask="url(#mask-4)" points="61.762 21.7485 62.234 21.7485 62.234 19.1535 61.762 19.1535"></polygon>
                <path d="M64.1273,20.6121 C64.0413,20.8481 63.9663,21.0631 63.9073,21.2771 L63.8913,21.2771 C63.8373,21.0631 63.7683,20.8481 63.6823,20.6121 L63.1723,19.1541 L62.6693,19.1541 L63.6553,21.7491 L64.1063,21.7491 L65.1243,19.1541 L64.6313,19.1541 L64.1273,20.6121 Z" id="Fill-70" fill="#FEFEFE" mask="url(#mask-4)"></path>
                <path d="M65.7571,20.1995 C65.7951,19.8725 66.0041,19.4325 66.4811,19.4325 C67.0111,19.4325 67.1401,19.8985 67.1351,20.1995 L65.7571,20.1995 Z M66.5181,19.0945 C65.7621,19.0945 65.3011,19.7115 65.3011,20.4935 C65.3011,21.2775 65.7781,21.8025 66.5771,21.8025 C66.9901,21.8025 67.2741,21.7165 67.4411,21.6415 L67.3601,21.3035 C67.1831,21.3795 66.9801,21.4385 66.6411,21.4385 C66.1701,21.4385 65.7621,21.1755 65.7511,20.5365 L67.5741,20.5365 C67.5801,20.4885 67.5911,20.4135 67.5911,20.3175 C67.5911,19.8405 67.3651,19.0945 66.5181,19.0945 Z" id="Fill-71" fill="#FEFEFE" mask="url(#mask-4)"></path>
                <path d="M86.8084,18.1292 C86.6374,18.1292 86.5134,18.2582 86.5134,18.4242 C86.5134,18.5852 86.6314,18.7132 86.7974,18.7132 C86.9854,18.7132 87.1034,18.5852 87.0984,18.4242 C87.0984,18.2582 86.9854,18.1292 86.8084,18.1292" id="Fill-72" fill="#FEFEFE" mask="url(#mask-4)"></path>
                <path d="M70.9158,20.5155 C70.9158,21.2335 70.6568,21.2935 70.3678,21.2935 C70.1968,21.2935 70.0668,21.2505 70.0188,21.2325 L69.8868,21.1815 L69.7738,21.7955 L69.8628,21.8315 C69.9988,21.8875 70.2228,21.9265 70.4058,21.9265 C71.2098,21.9265 71.6178,21.4635 71.6178,20.5525 L71.6178,18.0165 L70.9158,18.0165 L70.9158,20.5155 Z" id="Fill-73" fill="#FEFEFE" mask="url(#mask-4)"></path>
                <path d="M73.3123,21.4544 C72.8513,21.4544 72.5243,21.0254 72.5243,20.4564 C72.5243,19.9634 72.7643,19.4484 73.3233,19.4484 C73.8803,19.4484 74.1003,20.0064 74.1003,20.4464 C74.1003,21.0304 73.7623,21.4544 73.3123,21.4544 M73.3333,19.0944 C72.6153,19.0944 72.0463,19.6044 72.0463,20.4724 C72.0463,21.2934 72.5873,21.8084 73.2913,21.8084 C73.9173,21.8084 74.5833,21.3894 74.5833,20.4304 C74.5833,19.6364 74.0793,19.0944 73.3333,19.0944" id="Fill-74" fill="#FEFEFE" mask="url(#mask-4)"></path>
                <path d="M77.3231,19.1536 L76.8511,19.1536 L76.8511,20.7456 C76.8511,20.8316 76.8351,20.9176 76.8081,20.9876 C76.7221,21.1966 76.5031,21.4166 76.1861,21.4166 C75.7581,21.4166 75.6071,21.0836 75.6071,20.5906 L75.6071,19.1536 L75.1351,19.1536 L75.1351,20.6706 C75.1351,21.5826 75.6231,21.8076 76.0311,21.8076 C76.4921,21.8076 76.7651,21.5346 76.8881,21.3256 L76.8991,21.3256 L76.9271,21.7486 L77.3441,21.7486 C77.3291,21.5456 77.3231,21.3096 77.3231,21.0416 L77.3231,19.1536 Z" id="Fill-75" fill="#FEFEFE" mask="url(#mask-4)"></path>
                <path d="M78.5076,19.6634 L78.4866,19.6634 L78.4706,19.1534 L78.0576,19.1534 C78.0726,19.3944 78.0786,19.6574 78.0786,19.9634 L78.0786,21.7484 L78.5456,21.7484 L78.5456,20.3654 C78.5456,20.2854 78.5566,20.2094 78.5676,20.1454 C78.6306,19.7914 78.8666,19.5394 79.1996,19.5394 C79.2646,19.5394 79.3126,19.5444 79.3616,19.5564 L79.3616,19.1104 C79.3176,19.1004 79.2796,19.0944 79.2266,19.0944 C78.9096,19.0944 78.6256,19.3144 78.5076,19.6634" id="Fill-76" fill="#FEFEFE" mask="url(#mask-4)"></path>
                <path d="M81.1199,19.0946 C80.6899,19.0946 80.3909,19.3356 80.2619,19.5826 L80.2509,19.5826 L80.2239,19.1536 L79.8059,19.1536 C79.8219,19.3676 79.8279,19.5886 79.8279,19.8566 L79.8279,21.7486 L80.2989,21.7486 L80.2989,20.1886 C80.2989,20.1086 80.3099,20.0276 80.3319,19.9686 C80.4119,19.7056 80.6529,19.4856 80.9639,19.4856 C81.4089,19.4856 81.5649,19.8346 81.5649,20.2536 L81.5649,21.7486 L82.0359,21.7486 L82.0359,20.1996 C82.0359,19.3086 81.4789,19.0946 81.1199,19.0946" id="Fill-77" fill="#FEFEFE" mask="url(#mask-4)"></path>
                <path d="M84.1434,20.8748 C84.1434,20.9228 84.1334,20.9768 84.1174,21.0248 C84.0414,21.2448 83.8284,21.4588 83.4894,21.4588 C83.2474,21.4588 83.0444,21.3148 83.0444,21.0088 C83.0444,20.5048 83.6284,20.4138 84.1434,20.4248 L84.1434,20.8748 Z M84.5994,20.1558 C84.5994,19.6358 84.4064,19.0948 83.6134,19.0948 C83.2864,19.0948 82.9744,19.1858 82.7604,19.3248 L82.8674,19.6358 C83.0494,19.5188 83.3014,19.4428 83.5424,19.4428 C84.0744,19.4428 84.1334,19.8288 84.1334,20.0438 L84.1334,20.0968 C83.1294,20.0918 82.5734,20.4358 82.5734,21.0628 C82.5734,21.4378 82.8404,21.8078 83.3664,21.8078 C83.7364,21.8078 84.0144,21.6258 84.1604,21.4218 L84.1754,21.4218 L84.2134,21.7488 L84.6424,21.7488 C84.6104,21.5718 84.5994,21.3518 84.5994,21.1268 L84.5994,20.1558 Z" id="Fill-78" fill="#FEFEFE" mask="url(#mask-4)"></path>
                <polygon id="Fill-79" fill="#FEFEFE" mask="url(#mask-4)" points="85.335 21.7485 85.806 21.7485 85.806 17.9415 85.335 17.9415"></polygon>
                <polygon id="Fill-80" fill="#FEFEFE" mask="url(#mask-4)" points="86.573 21.7485 87.045 21.7485 87.045 19.1535 86.573 19.1535"></polygon>
                <path d="M88.6375,20.242 C88.2995,20.114 88.1445,20.017 88.1445,19.803 C88.1445,19.61 88.2995,19.449 88.5785,19.449 C88.8205,19.449 89.0075,19.534 89.1095,19.598 L89.2275,19.255 C89.0825,19.17 88.8525,19.095 88.5895,19.095 C88.0325,19.095 87.6945,19.438 87.6945,19.856 C87.6945,20.167 87.9135,20.425 88.3805,20.591 C88.7285,20.72 88.8635,20.843 88.8635,21.068 C88.8635,21.283 88.7015,21.454 88.3595,21.454 C88.1225,21.454 87.8755,21.357 87.7375,21.266 L87.6185,21.626 C87.8015,21.733 88.0635,21.803 88.3485,21.803 C88.9645,21.803 89.3185,21.481 89.3185,21.025 C89.3185,20.639 89.0875,20.414 88.6375,20.242" id="Fill-81" fill="#FEFEFE" mask="url(#mask-4)"></path>
                <path d="M92.7498,19.0946 C92.5038,19.0946 92.3318,19.1586 92.1768,19.2766 C92.0688,19.3576 91.9678,19.4696 91.8868,19.6146 L91.8758,19.6146 C91.7638,19.3086 91.4948,19.0946 91.1418,19.0946 C90.7128,19.0946 90.4718,19.3246 90.3258,19.5726 L90.3108,19.5726 L90.2888,19.1536 L89.8758,19.1536 C89.8928,19.3676 89.8968,19.5886 89.8968,19.8566 L89.8968,21.7486 L90.3578,21.7486 L90.3578,20.1836 C90.3578,20.1026 90.3688,20.0226 90.3958,19.9526 C90.4718,19.7166 90.6858,19.4806 90.9798,19.4806 C91.3398,19.4806 91.5218,19.7816 91.5218,20.1936 L91.5218,21.7486 L91.9828,21.7486 L91.9828,20.1456 C91.9828,20.0596 91.9998,19.9736 92.0208,19.9096 C92.1018,19.6786 92.3108,19.4806 92.5788,19.4806 C92.9588,19.4806 93.1418,19.7816 93.1418,20.2796 L93.1418,21.7486 L93.6038,21.7486 L93.6038,20.2206 C93.6038,19.3206 93.0938,19.0946 92.7498,19.0946" id="Fill-82" fill="#FEFEFE" mask="url(#mask-4)"></path>
                <path d="M9.3914,11.0662 L7.8204,11.0662 L7.8204,14.3872 L6.6174,14.3872 L6.6174,6.6422 L7.8204,6.6422 L7.8204,10.0412 L9.3914,10.0412 L9.3914,11.0662 Z M8.1574,16.6592 L1.7714,16.6592 L1.7714,13.7952 L2.9974,13.7952 L2.9974,15.6332 L8.1574,15.6332 L8.1574,16.6592 Z M2.8914,9.6642 C2.1904,9.6642 1.6114,10.1622 1.6114,10.7952 C1.6114,11.4292 2.1904,11.9282 2.8914,11.9282 C3.5924,11.9282 4.1724,11.4292 4.1724,10.7952 C4.1724,10.1622 3.5924,9.6642 2.8914,9.6642 Z M2.3844,7.4852 L3.3984,7.4852 L3.3984,6.2862 L2.3844,6.2862 L2.3844,7.4852 Z M2.8914,12.8722 C1.5484,12.8722 0.5224,11.9682 0.5224,10.7952 C0.5224,9.6242 1.5484,8.7202 2.8914,8.7202 C4.2344,8.7202 5.2604,9.6242 5.2604,10.7952 C5.2604,11.9682 4.2344,12.8722 2.8914,12.8722 Z M-0.0006,8.4772 L5.7944,8.4772 L5.7944,7.4852 L-0.0006,7.4852 L-0.0006,8.4772 Z" id="Fill-83" fill="#FEFEFE" mask="url(#mask-4)"></path>
                <path d="M10.8436,13.0833 L13.5176,13.0833 L13.5176,11.5343 L9.6876,11.5343 L9.6876,10.5313 L15.6916,10.5313 C15.9026,9.6843 16.0256,8.6923 16.0356,8.0133 L10.8436,8.0133 L10.8436,6.9873 L17.2836,6.9873 C17.2836,8.3363 17.1506,9.5403 16.9166,10.5313 L18.7886,10.5313 L18.7886,11.5343 L14.7326,11.5343 L14.7326,13.0833 L17.3176,13.0833 L17.3176,16.6593 L16.1146,16.6593 L16.1146,14.1083 L10.8436,14.1083 L10.8436,13.0833 Z" id="Fill-84" fill="#FEFEFE" mask="url(#mask-4)"></path>
                <path d="M28.5355,9.952 L26.9645,9.952 L26.9645,12.526 L25.7615,12.526 L25.7615,6.642 L26.9645,6.642 L26.9645,8.927 L28.5355,8.927 L28.5355,9.952 Z M21.9585,15.645 L25.7725,15.645 L25.7725,13.779 L21.9585,13.779 L21.9585,15.645 Z M20.7545,16.66 L26.9645,16.66 L26.9645,12.765 L20.7545,12.765 L20.7545,16.66 Z M19.3535,7.11 L24.1445,7.11 L24.1445,8.136 L20.5565,8.136 L20.5565,9.072 L23.9785,9.072 L23.9785,10.075 L20.5565,10.075 L20.5565,11.066 C21.1815,11.066 21.9615,11.044 22.7635,10.999 C23.5545,10.944 24.3465,10.854 25.0485,10.721 L25.1705,11.713 C24.3465,11.857 23.4205,11.958 22.3955,12.036 C21.3815,12.102 20.3675,12.125 19.3535,12.102 L19.3535,7.11 Z" id="Fill-85" fill="#FEFEFE" mask="url(#mask-4)"></path>
                <path d="M36.3406,6.6424 L36.3406,9.7964 L37.9896,9.7964 L37.9896,10.8214 L36.3406,10.8214 L36.3406,16.3924 L35.1366,16.3924 L35.1366,6.6424 L36.3406,6.6424 Z M33.5886,13.9084 C32.5626,13.2274 31.6606,12.2254 31.2586,11.2334 C30.8466,12.3034 29.9556,13.3724 28.8746,14.0524 L28.0946,13.1724 C28.7626,12.7714 29.3986,12.1914 29.8556,11.4454 C30.3116,10.6984 30.6126,9.8294 30.6126,8.8044 L30.6246,7.1774 L31.8606,7.1774 L31.8606,8.7704 C31.8606,9.7404 32.1396,10.5984 32.5966,11.3114 C33.0426,12.0244 33.6666,12.5934 34.3456,12.9944 L33.5886,13.9084 Z" id="Fill-86" fill="#FEFEFE" mask="url(#mask-4)"></path>
                <path d="M46.5735,6.6424 L46.5735,16.3924 L45.3695,16.3924 L45.3695,10.6874 L43.1745,10.6874 L43.1745,9.6404 L45.3695,9.6404 L45.3695,6.6424 L46.5735,6.6424 Z M43.7435,8.3474 L41.7375,8.3474 L41.7375,9.0164 C41.7375,10.0074 41.9605,10.8434 42.3945,11.5124 C42.8405,12.1804 43.3975,12.7044 44.0665,13.0944 L43.3085,14.0084 C42.3275,13.3394 41.4585,12.4254 41.1015,11.4454 C40.7015,12.5154 39.8875,13.4734 38.8625,14.1424 L38.1045,13.2944 C38.7735,12.8824 39.3525,12.3474 39.7875,11.6454 C40.1995,10.9434 40.4675,10.0974 40.4675,9.0384 L40.4675,8.3474 L38.4165,8.3474 L38.4165,7.3224 L43.7435,7.3224 L43.7435,8.3474 Z" id="Fill-87" fill="#FEFEFE" mask="url(#mask-4)"></path>
                <path d="M54.4246,6.6424 L55.6286,6.6424 L55.6286,11.8684 L54.4246,11.8684 L54.4246,9.4614 L51.4046,9.4614 L51.4046,8.4364 L54.4246,8.4364 L54.4246,6.6424 Z M49.7336,16.6594 L49.7336,13.8954 L54.4246,13.8954 L54.4246,13.1264 L49.7336,13.1264 L49.7336,12.1344 L55.6286,12.1344 L55.6286,14.8534 L50.9256,14.8534 L50.9256,15.6564 L55.8736,15.6564 L55.8736,16.6594 L49.7336,16.6594 Z M53.4326,11.0444 C52.0176,11.3454 50.0456,11.4564 47.9396,11.4124 L47.9396,7.0104 L49.1426,7.0104 L49.1426,10.3524 C49.8336,10.3644 50.5466,10.3424 51.2936,10.2864 C52.0396,10.2194 52.7086,10.1304 53.2876,10.0074 L53.4326,11.0444 Z" id="Fill-88" fill="#FEFEFE" mask="url(#mask-4)"></path>
                <path d="M63.879,16.3925 L65.083,16.3925 L65.083,6.6425 L63.879,6.6425 L63.879,16.3925 Z M58.418,12.7385 C59.187,12.7485 60.057,12.7045 60.87,12.6155 C61.673,12.5255 62.441,12.4145 63.054,12.2815 L63.199,13.3055 C61.639,13.6175 59.533,13.8075 57.215,13.7745 L57.215,9.9515 L60.402,9.9515 L60.402,8.2355 L57.215,8.2355 L57.215,7.2105 L61.572,7.2105 L61.572,10.9765 L58.418,10.9765 L58.418,12.7385 Z" id="Fill-89" fill="#FEFEFE" mask="url(#mask-4)"></path>
                <path d="M68.43,15.6445 L72.263,15.6445 L72.263,14.2965 L68.43,14.2965 L68.43,15.6445 Z M67.227,16.6585 L73.456,16.6585 L73.456,13.2825 L67.227,13.2825 L67.227,16.6585 Z M67.16,10.8765 L66.602,9.9515 C67.472,9.7845 68.207,9.5065 68.82,9.1275 C69.388,8.7705 69.678,8.3805 69.723,7.9575 L67.082,7.9575 L67.082,6.9095 L73.656,6.9095 L73.656,7.9575 L71.049,7.9575 C71.094,8.3805 71.394,8.7705 71.951,9.1165 C72.553,9.4945 73.3,9.7735 74.18,9.9515 L73.623,10.8765 C72.14,10.5765 71.026,9.9635 70.391,9.2165 C69.767,9.9635 68.586,10.5765 67.16,10.8765 Z M65.666,12.5035 L75.027,12.5035 L75.027,11.5005 L65.666,11.5005 L65.666,12.5035 Z" id="Fill-90" fill="#FEFEFE" mask="url(#mask-4)"></path>
                <path d="M83.126,13.9965 L84.285,13.9965 L84.285,6.6745 L83.126,6.6745 L83.126,13.9965 Z M82.267,13.8285 L81.109,13.8285 L81.109,10.0735 L79.75,10.0735 L79.75,9.0375 L81.109,9.0375 L81.109,6.8425 L82.267,6.8425 L82.267,13.8285 Z M84.374,16.6595 L77.967,16.6595 L77.967,13.3495 L79.192,13.3495 L79.192,15.6455 L84.374,15.6455 L84.374,16.6595 Z M79.839,12.5585 C79.069,12.0235 78.502,11.4775 78.055,10.6315 C77.576,11.5115 76.997,12.1805 76.15,12.7595 L75.314,11.9565 C75.893,11.5895 76.395,11.0875 76.797,10.5195 C77.197,9.9515 77.442,9.2715 77.442,8.3465 L77.442,7.2095 L78.657,7.2095 L78.657,8.3025 C78.657,9.1595 78.891,9.8505 79.281,10.3965 C79.672,10.9315 80.162,11.3775 80.663,11.7005 L79.839,12.5585 Z" id="Fill-91" fill="#FEFEFE" mask="url(#mask-4)"></path>
                <path d="M93.6033,6.6746 L93.6033,16.4256 L92.3993,16.4256 L92.3993,10.8536 L90.2493,10.8536 L90.2493,9.8286 L92.3993,9.8286 L92.3993,6.6746 L93.6033,6.6746 Z M85.6023,7.3546 L90.1703,7.3546 L90.1703,8.3806 L86.8053,8.3806 L86.8053,9.9736 L89.7363,9.9736 L89.7363,10.9986 L86.8053,10.9986 L86.8053,12.7816 C88.1873,12.7926 89.8253,12.6366 91.2183,12.3696 L91.3633,13.3826 C89.5813,13.7396 87.6073,13.8406 85.6023,13.8066 L85.6023,7.3546 Z" id="Fill-92" fill="#FEFEFE" mask="url(#mask-4)"></path>
            </g>
        </g>
    </g>
</svg>